<mxfile host="Electron" modified="2023-12-16T06:09:08.825Z" agent="Mozilla/5.0 (Windows NT 10.0; Win64; x64) AppleWebKit/537.36 (KHTML, like Gecko) draw.io/21.2.8 Chrome/112.0.5615.165 Electron/24.2.0 Safari/537.36" etag="3XnJcP7JNldZmTiOHJwW" version="21.2.8" type="device">
  <diagram name="Page-1" id="wdU2vlvLfLhHSGHgqa0V">
    <mxGraphModel dx="4718" dy="820" grid="1" gridSize="10" guides="1" tooltips="1" connect="1" arrows="1" fold="1" page="1" pageScale="1" pageWidth="3300" pageHeight="4681" math="0" shadow="0">
      <root>
        <mxCell id="0" />
        <mxCell id="1" parent="0" />
        <mxCell id="694kBXsGKUZABNbLc-Xw-11" value="" style="rounded=0;whiteSpace=wrap;html=1;fillColor=#1e1e1e;" parent="1" vertex="1">
          <mxGeometry x="1360" y="1410" width="1140" height="470" as="geometry" />
        </mxCell>
        <mxCell id="694kBXsGKUZABNbLc-Xw-10" value="" style="rounded=0;whiteSpace=wrap;html=1;fillColor=#1e1e1e;" parent="1" vertex="1">
          <mxGeometry x="1360" y="1120" width="1140" height="260" as="geometry" />
        </mxCell>
        <mxCell id="694kBXsGKUZABNbLc-Xw-7" value="" style="rounded=0;whiteSpace=wrap;html=1;fillColor=#1e1e1e;" parent="1" vertex="1">
          <mxGeometry x="1510" y="420" width="780" height="160" as="geometry" />
        </mxCell>
        <mxCell id="694kBXsGKUZABNbLc-Xw-6" value="&lt;div style=&quot;color: rgb(212, 212, 212); background-color: rgb(30, 30, 30); font-family: Consolas, &amp;quot;Courier New&amp;quot;, monospace; font-weight: normal; font-size: 24px; line-height: 32px;&quot;&gt;&lt;div&gt;&lt;span style=&quot;color: #569cd6;&quot;&gt;find_package&lt;/span&gt;&lt;span style=&quot;color: #d4d4d4;&quot;&gt;(Catch2 CONFIG REQUIRED)&lt;/span&gt;&lt;/div&gt;&lt;div&gt;&lt;span style=&quot;color: #569cd6;&quot;&gt;find_package&lt;/span&gt;&lt;span style=&quot;color: #d4d4d4;&quot;&gt;(fmt CONFIG REQUIRED)&lt;/span&gt;&lt;/div&gt;&lt;div&gt;&lt;span style=&quot;color: #569cd6;&quot;&gt;find_package&lt;/span&gt;&lt;span style=&quot;color: #d4d4d4;&quot;&gt;(SFML COMPONENTS graphics CONFIG REQUIRED)&lt;/span&gt;&lt;/div&gt;&lt;/div&gt;" style="text;whiteSpace=wrap;html=1;" parent="1" vertex="1">
          <mxGeometry x="1540" y="440" width="720" height="110" as="geometry" />
        </mxCell>
        <mxCell id="IgzzJq8hHqzZI9EDabm_-2" value="" style="rounded=0;whiteSpace=wrap;html=1;fillColor=#1e1e1e;" parent="1" vertex="1">
          <mxGeometry x="-1490" y="330" width="1100" height="260" as="geometry" />
        </mxCell>
        <mxCell id="08-NsosBbDU-mmR43x8U-31" value="&lt;span style=&quot;font-size: 70px;&quot;&gt;Dependencies: vcpkg&lt;/span&gt;" style="text;html=1;strokeColor=none;fillColor=none;align=center;verticalAlign=middle;whiteSpace=wrap;rounded=0;" parent="1" vertex="1">
          <mxGeometry x="-3150" y="150" width="800" height="382.5" as="geometry" />
        </mxCell>
        <mxCell id="G5lKV5aw3DPKW_N5aaKm-2" value="&lt;span style=&quot;font-size: 33px;&quot;&gt;Find the packages&lt;/span&gt;" style="rounded=0;whiteSpace=wrap;html=1;fillColor=#dae8fc;strokeColor=#6c8ebf;" parent="1" vertex="1">
          <mxGeometry x="1600" y="310" width="510" height="60" as="geometry" />
        </mxCell>
        <mxCell id="694kBXsGKUZABNbLc-Xw-1" value="&lt;font style=&quot;font-size: 30px;&quot;&gt;Install vcpkg&lt;/font&gt;" style="rounded=0;whiteSpace=wrap;html=1;fillColor=#dae8fc;strokeColor=#6c8ebf;" parent="1" vertex="1">
          <mxGeometry x="-2170" y="250" width="400" height="60" as="geometry" />
        </mxCell>
        <mxCell id="694kBXsGKUZABNbLc-Xw-2" value="&lt;font style=&quot;font-size: 30px;&quot;&gt;Tell CMake to use vcpkg&lt;/font&gt;" style="rounded=0;whiteSpace=wrap;html=1;fillColor=#dae8fc;strokeColor=#6c8ebf;" parent="1" vertex="1">
          <mxGeometry x="-1290" y="240" width="400" height="60" as="geometry" />
        </mxCell>
        <mxCell id="694kBXsGKUZABNbLc-Xw-3" value="&lt;div style=&quot;color: rgb(212, 212, 212); background-color: rgb(30, 30, 30); font-family: Consolas, &amp;quot;Courier New&amp;quot;, monospace; font-weight: normal; font-size: 24px; line-height: 32px;&quot;&gt;&lt;div&gt;&lt;span style=&quot;color: #569cd6;&quot;&gt;cmake_minimum_required&lt;/span&gt;&lt;span style=&quot;color: #d4d4d4;&quot;&gt;(VERSION 3.20)&lt;/span&gt;&lt;/div&gt;&lt;br&gt;&lt;div&gt;&lt;span style=&quot;color: #569cd6;&quot;&gt;set&lt;/span&gt;&lt;span style=&quot;color: #d4d4d4;&quot;&gt;(CMAKE_TOOLCHAIN_FILE &lt;/span&gt;&lt;span style=&quot;color: #ce9178;&quot;&gt;&quot;$ENV{VCPKG_ROOT}/scripts/buildsystems/vcpkg.cmake&quot;&lt;/span&gt;&lt;span style=&quot;color: #d4d4d4;&quot;&gt;)&lt;/span&gt;&lt;/div&gt;&lt;br&gt;&lt;div&gt;&lt;span style=&quot;color: #569cd6;&quot;&gt;project&lt;/span&gt;&lt;span style=&quot;color: #d4d4d4;&quot;&gt;(Dependencies)&lt;/span&gt;&lt;/div&gt;&lt;/div&gt;" style="text;whiteSpace=wrap;html=1;" parent="1" vertex="1">
          <mxGeometry x="-1450" y="370" width="1040" height="180" as="geometry" />
        </mxCell>
        <mxCell id="694kBXsGKUZABNbLc-Xw-4" value="" style="rounded=0;whiteSpace=wrap;html=1;fillColor=#1e1e1e;" parent="1" vertex="1">
          <mxGeometry x="-1490" y="640" width="1100" height="260" as="geometry" />
        </mxCell>
        <mxCell id="694kBXsGKUZABNbLc-Xw-5" value="&lt;div style=&quot;color: rgb(212, 212, 212); background-color: rgb(30, 30, 30); font-family: Consolas, &amp;quot;Courier New&amp;quot;, monospace; font-weight: normal; font-size: 24px; line-height: 32px;&quot;&gt;&lt;div&gt;&lt;span style=&quot;color: #6a9955;&quot;&gt;#Handle dependencies&lt;/span&gt;&lt;/div&gt;&lt;div&gt;&lt;span style=&quot;color: #569cd6;&quot;&gt;option&lt;/span&gt;&lt;span style=&quot;color: #d4d4d4;&quot;&gt;(BUILD_SHARED_LIBS &lt;/span&gt;&lt;span style=&quot;color: #ce9178;&quot;&gt;&quot;Build shared libraries&quot;&lt;/span&gt;&lt;span style=&quot;color: #d4d4d4;&quot;&gt; &lt;/span&gt;&lt;span style=&quot;color: #569cd6;&quot;&gt;OFF&lt;/span&gt;&lt;span style=&quot;color: #d4d4d4;&quot;&gt;)&lt;/span&gt;&lt;/div&gt;&lt;br&gt;&lt;div&gt;&lt;span style=&quot;color: #6a9955;&quot;&gt;# include(&quot;$ENV{VCPKG_ROOT}/scripts/buildsystems/vcpkg.cmake&quot;)&lt;/span&gt;&lt;/div&gt;&lt;/div&gt;" style="text;whiteSpace=wrap;html=1;" parent="1" vertex="1">
          <mxGeometry x="-1460" y="700" width="840" height="140" as="geometry" />
        </mxCell>
        <mxCell id="694kBXsGKUZABNbLc-Xw-8" value="&lt;div style=&quot;color: rgb(212, 212, 212); background-color: rgb(30, 30, 30); font-family: Consolas, &amp;quot;Courier New&amp;quot;, monospace; font-weight: normal; font-size: 24px; line-height: 32px;&quot;&gt;&lt;div&gt;&lt;span style=&quot;color: #569cd6;&quot;&gt;add_executable&lt;/span&gt;&lt;span style=&quot;color: #d4d4d4;&quot;&gt;(gui gui.cpp)&lt;/span&gt;&lt;/div&gt;&lt;div&gt;&lt;span style=&quot;color: #569cd6;&quot;&gt;target_link_libraries&lt;/span&gt;&lt;span style=&quot;color: #d4d4d4;&quot;&gt;(gui PRIVATE sfml-graphics)&lt;/span&gt;&lt;/div&gt;&lt;br&gt;&lt;div&gt;&lt;span style=&quot;color: #569cd6;&quot;&gt;add_executable&lt;/span&gt;&lt;span style=&quot;color: #d4d4d4;&quot;&gt;(use_fmt use_fmt.cpp)&lt;/span&gt;&lt;/div&gt;&lt;div&gt;&lt;span style=&quot;color: #569cd6;&quot;&gt;target_link_libraries&lt;/span&gt;&lt;span style=&quot;color: #d4d4d4;&quot;&gt;(use_fmt PRIVATE fmt::fmt)&lt;/span&gt;&lt;/div&gt;&lt;/div&gt;" style="text;whiteSpace=wrap;html=1;" parent="1" vertex="1">
          <mxGeometry x="1370" y="1160" width="640" height="180" as="geometry" />
        </mxCell>
        <mxCell id="694kBXsGKUZABNbLc-Xw-9" value="&lt;div style=&quot;color: rgb(212, 212, 212); background-color: rgb(30, 30, 30); font-family: Consolas, &amp;quot;Courier New&amp;quot;, monospace; font-weight: normal; font-size: 24px; line-height: 32px;&quot;&gt;&lt;div&gt;&lt;span style=&quot;color: #569cd6;&quot;&gt;add_executable&lt;/span&gt;&lt;span style=&quot;color: #d4d4d4;&quot;&gt;(&lt;/span&gt;&lt;/div&gt;&lt;div&gt;&lt;span style=&quot;color: #d4d4d4;&quot;&gt;&amp;nbsp; unit_tests&lt;/span&gt;&lt;/div&gt;&lt;div&gt;&lt;span style=&quot;color: #d4d4d4;&quot;&gt;&amp;nbsp; test_calc.cpp&lt;/span&gt;&lt;/div&gt;&lt;div&gt;&lt;span style=&quot;color: #d4d4d4;&quot;&gt;&amp;nbsp; test_run_app.cpp&lt;/span&gt;&lt;/div&gt;&lt;div&gt;&lt;span style=&quot;color: #d4d4d4;&quot;&gt;)&lt;/span&gt;&lt;/div&gt;&lt;div&gt;&lt;span style=&quot;color: #569cd6;&quot;&gt;target_link_libraries&lt;/span&gt;&lt;span style=&quot;color: #d4d4d4;&quot;&gt;(&lt;/span&gt;&lt;/div&gt;&lt;div&gt;&lt;span style=&quot;color: #d4d4d4;&quot;&gt;&amp;nbsp; unit_tests PRIVATE run_app Catch2::Catch2WithMain)&lt;/span&gt;&lt;/div&gt;&lt;br&gt;&lt;div&gt;&lt;span style=&quot;color: #6a9955;&quot;&gt;#We don&#39;t need this with vcpkg&lt;/span&gt;&lt;/div&gt;&lt;div&gt;&lt;span style=&quot;color: #6a9955;&quot;&gt;#list(APPEND CMAKE_MODULE_PATH ${CMAKE_SOURCE_DIR}/build/_deps/catch2-src/extras)&lt;/span&gt;&lt;/div&gt;&lt;br&gt;&lt;div&gt;&lt;span style=&quot;color: #569cd6;&quot;&gt;include&lt;/span&gt;&lt;span style=&quot;color: #d4d4d4;&quot;&gt;(Catch)&lt;/span&gt;&lt;/div&gt;&lt;div&gt;&lt;span style=&quot;color: #d4d4d4;&quot;&gt;catch_discover_tests(unit_tests)&lt;/span&gt;&lt;/div&gt;&lt;/div&gt;" style="text;whiteSpace=wrap;html=1;" parent="1" vertex="1">
          <mxGeometry x="1370" y="1420" width="1080" height="430" as="geometry" />
        </mxCell>
        <mxCell id="iOABAnh25_ZmhCILAKLg-1" value="" style="shape=image;verticalLabelPosition=bottom;labelBackgroundColor=default;verticalAlign=top;aspect=fixed;imageAspect=0;image=data:image/png,iVBORw0KGgoAAAANSUhEUgAAA0YAAAGBCAYAAABCVqE9AAAAAXNSR0IArs4c6QAAAARnQU1BAACxjwv8YQUAAAAJcEhZcwAADsMAAA7DAcdvqGQAAJrGSURBVHhe7N0JXFTV4gfwn5Ibo4gEygNR3DHUUDJTxLUsxaVsMVBMy6XnUv/MNG15r03Tyl6llkuPkgRt0VzQnqWZa6YoqeSuKGIihoiiLGL/c+49MwzDgKDMgMzv2+fGuecuszDC/XGWW6lz585/g4iIiIiIyIFVCgwM1IJRevolrYKIyFaqV6+mSkS2lZmZxc8blVvy85mVlanWqCKqVq26KtHtpLL6SkRERERE5LAYjIiIiIiIyOExGBERERERkcNjMCIiIiIiIofHYERERERERA6PwYiIiIiIiBwegxERERERETk8BiMiIiIiInJ4DEZEREREROTwGIyIiIiIiMjhOXl5ef1bFrKysrUKIiJbueOOO1SphJzboPrd96OW5zVk/nleVZqrgjvahaOWd038nXYeuTnXVD05qmvXcm/y81YFlesEoHrbXjA4JyLrr6uq3pwbqnd5As4GJ+Smn8f13Ouqnqh45OczN/cWfk4ZKuOh0Bro2/0OZPx6DedU9UMjXdCr1XVkHr2OczmqksrETf++ozLFFiMiKvdqPPAU6ndshzuDnkK9dr6q1kiGovGoH9QGHh0HosEDQaqe6GY0RK0Bg+F9j/g89RqPOo3cVL2RG6r1HA+vu9ugbs/B8OzQUNUT2UsljJzui5ED6qF1PVVl5F4bPQc0wL+nG1BfVRFR8TEYEdFtpApqBT0LD/+8i9XK/s+KUOSN8va3uW6h/8Qz/QPU2i26uz+e+ecz6H+3Wif7qOSCO0PGo7ZnFVUhQniX8fC+y6Wc/fLshidL8fMR0P8Z/POZ/iilTy+VOifUrVUJOJWM56ZcxT5VK/0wPRE/nBKFWk5opFfZzcwNJ7FvyUi1dnPkOU5umKnWyoIPBgzorsoFdR8wQOxBFVmlwMDAv2UhPf2SVlF6HsLEuf3QWK0Bx7FyTDxaze2Kvz6ZgogDem3zp6bj/+r+gjHvIf/+F3fiP1O+wGFRfOil6fjH6rxjdM0xfPrzaF9brSIdO83O+9BLc9Df9FPBfJu15/UBjsvn0cFF1YnaFWPx/v/UChGViurVq6lSydQY8AG8G6gV6e+ruLBuFi5gELx7NUU1cY1gcmotjq74Sa0URl5ItkQdtQZxpgOfLsFGcSnY/5mO8EYStn++EnFqax79OEPSdny+suBWczIYNcm48X75dH8S//Q8i0+jN6qKEpDhqZMzjmmvo3iK/RxLeO4uXbrgwoUL2LfP/JLNvjIzs27y89YUtYf9Ex611KqUlYzklZ/gqu941G9fL18Iz/z9U5zedFStFUJ7/7xRVa0i2/j5Up/DtAPWv+fquIyDn2LJz6rOKnmeJriy7XOs/F1VFYMMQIGILdlnVCn551v/t+V8/EavRZD/DhpfKeTfYMUgP59ZWZlqraTuwCsRDdHuegpmPpOOHapWVwljZjdGT0MK/jM8HZtVrT3IUNP73Nto/eQCVXMbGvYFdr0WiMTPn8Mj0/J/ULtPXY6Pn/FB7Fv3yN1uqFq16qpEtxPb/tFLhpsxYzFGWz7AD+K/91ecR/uhw0SsEVoOw3C/Q/jPez9ou5vv/5+DLfB/Lz2k1xegh6LmBz9S5xbLJ4fQfPx0DG+pdtHCkNpm/phSgeelk2FIP9dO3DngRRGhiKi8uS7/lFOpBur0egW+xlAk6oo9ykNedImLUYiLzU8/Vcu2K/A0te5ki/+84Wflj4YB/ZuYhSkqjAxFdepUgHfK+LmqVg/1HnsbDYyhqASfN631pZMHUraZfd6OO5t9vsTnzbmJ1daebneZhSkqoHnz5ujWrRvuvPNOVVN8t3Js2buGc/Jv2eIKruDnwwl1DOJLxnUk6xVUEl8Mw0ufH0XTZz5G9HP+qhLwfy5ahKKmOPr5S8UKRXT7sn9vgP99gJWp7dH/QeChvu3x10a9VcjS4d8O4aIqF/BgP7THTkR8aXbkgS8wRQagvlbizP/icbz2nWatRDdwYBsOX3THP0whi4jKhwSkrDuKLC0ciR9gWiiSrUcbUbw272540s+AJHGRmu+v1r+vxBKzv3ynpIgLe89uas2oG/y8M5CUlH+iGvmX83/+Uy2FdT/Swtg/8aTxYljrGmc87klx5hvQ9s/bz/wxte568vxai0QdtDTWWdvPRP71/p9o6SourLw7qucgWx0sn+Mz6D/c+rmLcubMGe2rt7e39vW2dXk3kncmi8tQQX7e5FfZerRxt4gzxSDew0DxmTnwqUVLzs9LzD5/GeLzBng0tHhfxbFNnJOQlKbWNfr3yPr3NI/+fc/7vGjhzHhc6A0/bfr+pv3MH1N217P22bG2n1apyG0d4S2u4uv4ie3y34nx82XcT/s38iSGy8f2E6G6qjc6inOZPo+kVMZTb/wDPb3/RtrBK1ZahK5h08FM4B93YvIbNdBa1RYwIhr7Tq6Heae1kUv2mXWFm4n1J0/ipFrWvyeqjMe8t95UX2i3N7WPdpykHauO2ReNmfkeK0/+7njmz2EfokeoaovnZv4c5GuQ61qXvALHFc/P0x7BcyIctXp+iRaOZCha8nwrEYoKtiJRxWPbYFS7Pf5v7hzMlcv0vBabH1bLFpk56I9VhXZXk6EJ546rtfyae7rj4kERXtS6yam/cNHNM69lyOhBfzQ+EW9qGSrseZm07CTqDmFrvq57RBVJR4z/TwS++M84UTIqom72C+ipasratcOfIunnBP1iFTm4+PMs/HXY2sxhVnT3RJ3sFJy6UXejkweRZPFXfK21KO0sZPf9PN3giQOqJWA7kuCNQMuLVXkBmC+MiYtE8xaEg+JHTgnGc8iL1pamx/xU78okLrQ/3ZYkLtZll0C9zup+JnFY+fmnOCAuurOTtovtsovcRiw5KAJhY/25yNYKJMViZUTBc9/IX3/9hczMzNs/GAlZv36I07+n6y1Ef6cjZeWHuGScAuwGAhp6oKr4zNyo+2H6ymPI8PZTAUOnvf8pp5Cu1jXi82tq6RTfE3gHFmhp0r7vIlBtN3Z7FIGjo0eKWNePOyA+FcUJtzoZgsxbV2XAs/bZsbafOoVGfLbkvw+RJi/IfWQXud9XIla+hLvkqxbHN64jti1BxMrPxb+JC3p3Q3GuwrrdyRafxo0bw9nZGR06dEDr1noEkN04+/Tpoy333nuvVie3Get69OiBe+65x+qxt4e/kSFnm8vNRXZhP/au5iIn9zqyi5qVbuEG7E9vikBjcMFI9PAH9v8ku8HJ4DEI+LohGjYUy1vbTLPeya6mgwJj9fqGb2Obx6CCAUeGoCfqYttbDdHzJVkhzvdaK+wX69pxHwG9O+YNXbBuJKL3mT2Hhq0RujCvvu72t1V9QyyFxXNoMgiBsfq2t7cDnZ6PFkeVjAxHT360X4SjNVgjQtH+j55kKHIQ9utKp8YLFckssMjQNMW8RajEXNB+vAo/beIxxthdTyrkeTUWYU3bfygQUZznS0Rl4nr8ZzgVMQvHI6YhJT5V1RbTlfRijFuIw6kU40WbFIAGHiIn/GF5iSsu+ExjQ+Qxlu0IDUQIkmNE8i4U9YB1LO/C8eezuFDVGa5q9UbiLmUAzi5aeClKcffLRwSsA1e84ddfb62ILUYIKkxSUhKqV69+m3ZVMpeDa5tmIuEL8Xn770xcPFuyOZCzM/I1+RRiI86m1UETU2ARgdv1Ao5Zvv/mLU2/n0KBj1tDEYJkC5VpbI4KHMfzxupsPHsBVQ3F/rQh/QpgqHXDT1sx98svbmWs/geI/n7wvnKg0BBkzeHDh3H8+HFcuXIFO3bs0MazGce2rVmzRquTwUeGIPkZPHr0qFa/YcMG7Nq1q8Cxt4+/8e3bf2J90h2o29YZwao2zx3o0taAKhkXEfV2/okZ8luADfHpqOujIsOIHhCX/9ggw8d7gWh6bKkKNcLCUIQayziKpT0mqfIChP5wFC7+PcyCRw8Rgjrh3NfGICNbcXqL8601rcvzfbw9X+S3YgESxc9g0/Mzeu9JdMI2fGw2jmlS1DbA/DmYPfcFP+1HuktdNNNXiW7I/l3p0BzDh7bHXyvGYiX6YeKDqloyDyzmQcbC4bPnUbuulY5xDe5E7dSzKtAYxxitwvFGXc3GHhVOH2P0EXZC7+pHVHFtxyf/NxzD/m+2KBkVUTfuQ6xXNeVDDq5fThLLjX65WlHMsBC38hguuHrqf8XvLi/czMKMGfNuSh1lXyEzVb29tYH1BS74XFuajpHjnerAABcrY0ysEhfH21M8tG5GRc4cVtz9LGz8IwkGbw+k7Lq1ge8yGOXm5laAYCRdxfVL4vN2pZgtk2aKG0Lk+w6PBtr3SYZnQ9JBvcUnH70bm/650bum5akKb2+91cXyOK37mvHzJruplSAwb4zejhQP2WWu6G6Uxd0vvzisPJ4hnjdw4GYmHDEjP2fyvjE+Pj5ay5BsCZLBKCsrC9evX4evr2+FaMHUVUIVOVFi1nUUjN25uJChijcgQ4MxUMwME2Hmh1ARR0SQ8amL9HNHtH1u6NC5fK2aLh075Q9VSrHPZ2ZSj7ex3/9VrUtcvhahlETteZosTMS5wsKP3KaKJSEnWpDd5/Z/1Ad9tJajJVg+lf06HYH9g5EcH5Sqd6HTu9TdxCQH/1uFnW79MP0ps05wLYdh+gB37FxtGah+wPtyYgbzyReKdBgRU1YBnHyBqOLRWmc80KBYIWQjDiYZ0KR/N/RvbLDSWqSHoo6GY6r70KfYbjH+KDvpAJKcC3Zd0rsgGbsdWet6VLQ42d1IPp4MPkWMGSnufuZkF66MNHGxek/xw1Rh0tPT4enpqdYcT9zJFGQbw/WN/L4Sx2RrXXd9LFuB1iItFOmzuumfGb1rWp5sJB0UodbPcnyPqDef+EEuJZrtTe86Jx9PBp/Cx/wUdz9zskXLgAtpBrQs5uezKDIAGVuGjItsDdq0aRPi4+Ph7++vdaW7/cO6mmDh6nUUHHDwN3KK26gpu9OhFXqMmInAJkcRaxZmXOoWs42lRV24mAWV9O1LrXavszxfs7o36konLUBoa9klTg9IpvFKHj75u8aN8EHd9HMoefSyTp99rqnWfS7043jEfxyqdauTEzIwHFV89htjNHc6hj8owwuw0tgadOALROxwR/9CZ58zMusWJ5aJD8rw8hEO+z1vqps7/k78MsZySm9FPo75LHeWz6tAa5KcPQ/oP32YWieisvR35lVcU4ucd6Ggq7hutk/hZNgBvDtZXDze3R9PWvkrt7ywhXdLeMP6uCRXQ1WzrlKyu53lHFFp4mLxADK8O5rCkX7OgmNDbkbJu9XpLQ6FXrR2f1Ibn3Iw+qA2XsrazHxFkWM1ZHcmo9t1Eoa/r6rPkvhqVW7eZ+2aZXc2czLspMlJKywm2BDvs7XvgezmVsdPTt9tbVySK5yrZuOKsefo3Q1Q4OOWuhKfHxSh1vT5Vl1CSyHkynOVuFudNsGCxWs3E9A/UGuJXRItW2etz8xXXHJcmwxGhQVx2YIZGxur7XP7B6NrOJ0qfhI28MDHFhMsPPTiP9CzAZCTmoMTqq5wsjsd0CosEHWPxcLUQU52P2syKN/ECdGmsUhN0dt8coQnmuJorPFI6YgIM0txruOrpnCkn6933iQI4ny9m6iykH/CBWvMutW9FIujLp3wnNn+srUL8RvytyLdrGFf4D1t9rnntFBkJMORnJCh6TPvyYnrqAKz4X2MiIjyu9n7GJU6OQOW7FJkZLqvjAwOgcCuvBYcOcOX59m8QeCylSjv3i9yti3j/ZCycUFkJEOGvk0eZ7rPi7xAlDO7Ge9XY/n4hdULsnXp85MNTPcRSpOtVKY+VMb7L+nkY8rZwuQxseJZFtwvr9VBez3G5yW3b7uCJtqkEOq1a9vy1s3PXdgEDDIYyWm65V/ojYwD4H/77Tftq73c/H2MSp/Wsmje78103yL5+fHEWdP38AafP/PPR/YF8V0z4Iq2rzxPE9N9jIyPJyc6kMcZv3dGxvoCz0uQ2w7WUi2h0Wna58W0i/n9lsw/O58ehIu1/bR9zO5/ZXz+8t/bcWd09EPe51fbZlzXP6fyfMbnao0MOHfffbc2li0xMVEL4sZ16dq1a1ogqlevnqnu/Pnz2mfR8lh7jzO6tfsYCXfegadGuaC101V8aTaWqF0/ZwTWycGv3+VgX3G61MmJErQxQcaJEhRVr7frpGPbW60RCllXF/u310UnNXlC+va8+xblu4+R8fhjS9FQjkmSs9SJEKVJ34al8a3QGx9r+5ofl1cGove9ik7GhiXjeTT65BDqbPmeg5yV7tW6ay32FT+xG/Y0Bb+iyRu8NsWKFdY/dPIGr0dXrECiWi8K72N0e2IwIiK7KTfBiOxGthY1adJE68ok/6pvL+UpGBFZuuVgVBa0sFMXa4sdMgonA5CcOc5yLFJh9bcjBqPbUxlMvkBERI5C/sVetiDZMxQRUTn23noMshjTpJNjndJx7pBaJSoDDEZEREREZBuypcn8hqzaPY7MW51kdze5Td6f6OO8ab2JygC70hGR3bBrE9kLu9JReXZbdqWjEmFXutsTW4yIiIiIiMjhMRgREREREZHDYzAiIiIiIiKHx2BEREREREQOj8GIiIiIiIgcHoMRERERERE5PAYjIiIiIiJyeAxGRERERETk8HiDVyKyG97QkIiIiMorthgREREREZHDYzAiIiIiIiKHx2BEREREREQOj8GIiIiIiIgcHidfICK7sdXkC67B1fF4m6rAsXQs+EFV3l0D/9e9Ek7HXsG3m1UdlZrWz3+GN7rW1coZOz9E+PTC3+TgKZF4ob1BK5/75V949qN9WpnKAwN6TvkEY9u7qvXiSds5B+Onr0eGWiciqggYjIjIbmwSjB6qjUUj3WHIuIIdUX9ipikYOeOjlzxRv8Y17FtwCv821ttDu2fwVqgLdrz0IVarqhLTzuGLhOjX8PluVWdTbug6cjTaJUfhw5UnVV3hZNgZhflFBiJLxT+mHZ759yPASnu99htrN/wtPILleC2i9J+QPHdowwRE//tzlMrZ73ocL/Vzxi8ffYnfbvhPbhg+WNYa+wa+iC9UzY3dzDFEROWf7brSBU/CwugoRJst08NFffi0fHWmek0QJs+3Vj8Y0832j54/SeypWDxO3jFE5BA8q8KAbOz+wiwUSb9fwfP//QsZqIKanqrudrL7c7z2kj2DQSp+WbcPaD8CL/RvqOrIHnZHvIaXSisUSX+swi9nG+KRiU/h3uqqzk5kyHvvvffU8gL6qnoiottBkcHI2a02nFXZOme4uhW9R0bsHISGhmnLlEhVKSSs0etiTgK+faZhiKgb8u5YBNRKQIxFPYK9kab2D12TANQKwPCJMhqJIBUeAMOlOMy2PIaIHEgV1KmviuYMlVFVFakYTq7Ghwt3aOFo3IMMR7evTPz25UwsT2yIfhNCbzIcDcMHM4epcnH1RdfaO/DSSy9pS/Qfbuj672fQTm0lIirvnLy8vP4tC1lZ2VpFnkA8+84UPNwoDVt3nUKOqs3jjC7jp2Fiv3/gzLpY/KlqTRoGoX97T+DPnVi5LVFVCnf3xGPNXJF25Dus3yszzkO418uAK+dc0OCB5nA9uRX/+mkf9v4jUOzni6rOYr9VW7FV7KupHYjepvMCnfvdC0+cxW9inzr3P4rmrmk48t16GHcnovIjN/eaKpUizyroG2hAxpELWBen6ow61UJoiztwekcaNh5SdVb0/b/3EN7yL/wcZ/xJ1hcvvBcC9x9/xWGxJv8KPmFwH/Tq1Qu9ghrgr417EKgdUw2NHx6JsBBR36sLGvz1M/bIU/yjHXq0roYk7XjZLWwCwrrpx8nN8vFGPiqP6YVWNaqh44i8xzKRXekmdIPB2nPwr4Yff9X3zldv/hy01xAO/xqNMXBEGPpYHFeoi4fx6/FquLffw7i32nH8duyi2pBfw+CB4rdELJZvOaVqbqyoY8xfR5f6qUhzFUn3kPlrGYlHi/Ma1fdH2ywU9r7p33Pz718rVDP/Hmjvf945Uy+6oj4Omj4j5t/DLvXzPjs3PG//F/DeiEf156O21ZTPsZsh73tj/tj5ji/sfbDmGpJ+34EMn97o19sHGTv3I8nqP78APDioHs4tXYc48Vkd+eZEjBoUhNzVaWg8rCcGdnbHmf+dw4Mz5+C5UH8YVmzCvnzHmBOfHbPP15+VG6NLOxekm79+IqJyrIgWo1h88mok/vQLxxvPBlu0HOmh6MmGfyDy9fliz8IZAseqbm4LMDlYVZpp5C4H5KYgCd7wEKWM8wlavZFHPVOnOc2QkACISyAc2bFVrG3FjMg4ZNQKwDjxGCENMxA3dyq+0nclooruoZr4aNCdMOSkY98GVWduw2WcyHFC64fr4f8eUnVWrD5+BtUbts37y3b/ZvBKOqKND5IX1tr4D/VX8F/Mht9Uv6sDsFKvf2lzKvxCC3Yd6vt/ofBL+8XUVUqeryvEujrfkcZd4aXvWjhxMW3+HF76jxq5JOvvSsUvxvroBPjmew7V4Sde1HJt+y84490VL/RXm4py8gfMjhA/YzuOwLj79QkWbMri9S1HB/jpczUIMlh2BTYX5zWK70+aH0L/T221OO8v4p1/a3he+4X59++XJC90NR4nA4g2vks95kqgw115zS75v4fRSGgYmu99LfS8MhSJ34PG71f0H+l6fT4Wj70ZqtXF4n0oVjfLTPwW9SFWJfhqLUc3brkxoI5LFfECaqKeWLt87Bv8Cj+0wf1oXfcQIp5+G1H6jsVT3wXV1b8jIqLbQdFjjK5sxqypluFIhKJn/62FoiUiFG26olUWKq8r3UjMMBtv69tHHxNU/DCjjz8KaSi74RnPpbrSadslAwLCzcYfEVHFdlWbO0Z8vVbI7Fh/47LYJydH7VeYlUdwxuBiCih9G3vhzHEtFqGt+JlzcGXe+I/VEXnlzD+W512crvwFBzO80MzsArmevIB2PYhoY5ARF71d7xLn25R3qbj6PyKwqHKhTqcj0+z56cSFcjvxPDebTfCw+3PsEBfiec8h0+y5r8aRJMDtzhtfHpurUk0VbEa9DvHcjW/l7ojl4r1UK/27ikvzg/hFhBPN7j1IyHBDPdPLMH+N4lVuOohM72binS54Xi0A1857F82/f3IbXOtp4aHd8A4iGO/I+96Kcyz/wziLgeX3cDf2nMzM974Wdl7tc2X2/dotPkt5nwRdgcc2fTZ3Izmt5N8/k8rF6VRaD3XEL1Rj/5GqDfqgS+XT2IufsO9cC4z64g2EqW03JFu9gt3yfdaJiMq7G0++oMLRqeZPinDUEz1lKGp6tFihqCjGMUamwLQ5CSnii8HdV9tulJIsW4ZkKJLjj2SIMhurFByEZrXMwpcaf9SXEzAQOYZfMvB85F/IcHHDfT1UnbketdDapRJObzuH/xQ5K50MDSpQiAu6DiLM6BfiXnAxpCLZeJFaJP3CNY8X/OQFtNlFu6645zMjJ2KQLQcFBrRnIv20KipnLua/SDcntxVLw4cwbkRXVNm9EB/GnFOVtlTwdeRj8EOoaUB/KPwM1eFibUyZtDtZvMN5vIKNx4klWIQiFVIKkOFTFaXMi0XF1erwC807b+hd1fMFrnxM522Heq43eJ1G3l3znvN7skVRD4Kr/6O3Tsl685avwlXHvWEv4JGm57Dq/S8tPofWfIspI5/Dc8PkbHNfYMqwZ/H0/30ojjuNLyaFI3zYv4rVYiRb1N4T/5aW23XyECKiW1e8WelEOPrk1SUiHA0plVBk3WLEyy4qDf31iRj8ZUBKQLwMQeEhIhSZtxTlZwxTQfW0znhIy98bj4gqMm2ChVzkWOuV9Nc1K+MjrZN/2fdq3Bft7hY/T07uMbuING+dKIrlhe8Z/GK1e53F+drVEzXFsPJDi65VUsGA4FW7OlL/uoWrUWMo2vlZsabtLh2Wr0MGUlWUkvK6HhqXD40tSJbk+5mRrlrhMnHQ2CXNuBRz9jfLoCPf1zzie2t+TrmYWgWLUkSgM5P5R3T+c5sCxm58/m+5XrD7XkF5oWj5zM+LMW136ZChSE5rXqqz7BER2UnxgpEkw9GE4Rg5sWShKG+MURQWajPJFe6rl2NEFPJFiEUXOz3w5HW/M51r80yMkK1EDUO0unGBhkLDExFVUHfegSoiGF3O11qjZFw3dQu6IdllybsZutYGEn43XtLJlqTq8OufN7NW3+F55ep3dTWFnnbDH4Gf+Am2x/xqUIQZbWYuUyuPOl+XvKjUt4ufuIRVZPejG01xbOpWp3fh8go221+2dnmfwZHCQsONlEkoUq9DPHfj+6p1J1Nl/ftS1Ngo8/ezHZ7p76eCrTwv8n3vimv37wnI9O6AZ0xPSL6vqqxaF/PGIxVXwe9XO/FZsjyLfGzc9UjeY1t1o251ZROK5Pv0SMMELLfBvZ6IiOyBN3glIruxyQ1eu7pg0XMeMKRfxualyXld5u6ugen/9w80d8nC7o+T8M4vqr4IckYxbUyQxV+7tXrjhbFsvfjPaq2uw8WDSL3LT13Ey1YENX5EBhyzG7zqx8vWC/mXfzmIXnYHkzuKozaLJxbcDEfkvubHmZe1QfvGqGA8j76mTQ5hmhjA7DmIS+4X3uuAdIt9C79JqRt6jhuHNqe+LJMbvJq/x5l//IKEhnICA/XctffCLEBmGL9H6jX+kQq/u9T7o74/Rvm+d8KZzXprk/79i857L+RjyO5fxu+9+XsuHu+Xk77oYHrv8n8Pzb8nNzpvvu+Xeh2QdXKaa7NJNfK+34L2ms7kf0yL15lPq1BMedgZ698vTigyoOeUTzC2vataL560nXMwfvr6/GP7LJ+3YnzPiYjKOwYjIrIbmwQjoXWfmni0Ww2kbUjJC0YN7kDoA1WRc/gKvrVBK3KBC+CbZXlBblRYfTnReuxneKOnPmNdxs4PiwxIMhC90F6/oj+3/l94ds4+rXzrCoY/IiKim8VgRER2Y6tgVBZKJxjpLQ++JwueR2tZMG9FICsYjIiIqPQUf4wRERHdMhmo8mYc0+9xZB6KZCCS27T7EzEUERER2Q1bjIjIbipSixERERFVLGwxIiIiIiIih8dgREREREREDo/BiIiIiIiIHB6DEREREREROTwGIyIiIiIicngMRkRERERE5PAYjIiIiIiIyOExGBERERERkcOzXTAKeBrTZoxDF2e1XmyDMT16ASYHq9USkcdGYXq4vjbk3SgsnBikrxQg952GIWqNiIiIiIgcl+2CUdwS/HC6KcLfvplwdLMWY0poGKZEqlUiIio2n05ZWLPoPA6vOYWT/zuFfW/kqi1EREQVnw270l3Bpk+mIvJEUzz55ig7hiMiIiqxnlew5l/J8K93BdWcVB0REZEDsfEYIz0cLTl6E+HIdxIWRkchWi7zJ8HUIS5Y1Juvi9Lk+caud0V3w5Nd67TzmXW3IyKyh1pe7dDzsXCMHj1aLGHo7KE2lBOv9k+HiyxccMOiN3zQ+cEGaP0vJiQiInIcdph8QYSjz/5tCkcdVW3RDAgQ4SYiNAyhYolJDcC4dwerbTcnaOIChCBGO59c4v1D4Ku2ERHZRJVaaNC2Jx4NH42wfu3R9M7y2nSeC/962eJrdez+uiZe21YJifoGIiIih2GHYGSmclVVuJEMxEXOxFa19lVMHDIa+t/CRAmD0TcQiItZrNbFOV+OQYIqExHZQq2APuh9b1O4izyUnXIQv/xyEJfUtnJH+21QHUeWaWtEREQOxw7ByBldnv03wv3+xJJXZ2O7qi2RzUlIUcWbl4KkzapIRGQHl34/gDMXT2HnqihELPsFB//iZAZERETllY2DUV4oipz6ITZdUdUlFewNj0tpOKFWb44HvM3HHslzqiIRkU1k78WqJWux+0y5bSciIiIixYbB6FZCkQEBIcYxRUGYHB4AHN6qd62TrUe1mqGzCjlBE4choJZeLtxixJ80PycwJCRAPAoREQF/q69ERESOy3bBKHAI+jW/2ZaiDMSd91czyI1FQGoMRrxvHHG0GKtjgYAx+uxyw7ERccX4Y+xXL89BnFuIOmcU/OM5xoiICB5/Y/yEywisLcrJVSB+vBIRETmkSoGBgdqfCtPT2dWDiGwrKytTlRyUR2eEDfRHLVxC/LIobLn1wZM3r2cG9k36S5+iG3cg60ItLJ1eC6/9rlUQERE5HDtMvkBEROXb36gmltrsX0xERA6MwYiIyBGtN6D1gw3QeYQ3VhyuCtRJw4AxVzBIbSYiInI0DEZERA4sMdEJz42vjXh5f1ePbPTgna+JiMhBMRgRETk8J1y8Kr9eg0sTrYKIiMjhMBgREREREZHD46x0RGQ3DjcrnWkWuqJd2v8doraeV2tlIRfRXyehU21nbJvpjtD1qpqIiMiBsMWIiIiIiIgcHluMiMhuHP4+RuUWW4yIiIjYYkRE5PAqQc+s11C7vlZBRETkcBiMiIgcXmXEJtUQX7Ph/1ga5j34N3z0DURERA6DXemIyG7Yla4c88vC+veS0bSqWhfSf/VG6385qTUiIqKKzXYtRgFPY9qMcejirNbLi+BJWBg9DUPUKhERCQerYdir/8DPCTWRlavqiIiIHIjtglHcEvxwuinC3y6H4YiIiApI/L0Kho12Q/M+DdDwwQZsLSIiIodiwzFGV7Dpk6mIPNEUT745iuGIiIiIiIjKLTuMMXJGl2f/jSebHsWS1+dj0xVVXaQgTJ4/FgHqrogZsXMw4n1fTI/uhrTYFAQE+mr1CWvCMAXTEN3HbD1SK+pd5sYEwKBWTdu0eldsDJ2Kr4yPgzjMHjUTW8XmIe9GIaShdoh6XFlLRKWBY4yIiIiovLLDrHRXsOmzf2PJUb3lqKOqLZweVpodnoPQ0DCxxOCI2gIRcwLc4/X6NQnw7ROFaH/z9byxQ0EdXHFkrjy+4DajIe+KUJQag1AVioImLkAIxLr2uHNwpPlYTA/X9yUiqigaN26sSkRERGRk3+m6K5tNd1SY4CA0QxwiTC01izHDVM5AXMxivRgZj4QC6x7wDtZXt74/FTM262V9W37eMgS5xWH2y+p4DEbfQOSdT0SlLYcz4FEvSK0TEREREVFFZYdgpHelC/f7E0tenY3tqrZQvq4wpCZpLTi3ZjCmR0chWltCoHe2M/JFgAxBkXpLUR4DAsYYj4nCuEADDO75jyQiIiIioorHxsEoLxRFTv2wmOOLBDdv3Fo7jQxF3ZBm7EoXGmPRYpSAmDUpIgRZdq8T9dr+ZoupRYmIiIiIiCoqGwajmwxFsttbrQAMn2iMRoMx2VQupmBveCAFScaudOH+Fi1GQuRUzI71QIjpnkaLEX/SFyHvDtbWiIiIiIjIcdguGAUOQb/mJQxFmsWYEhqDlMCxpm5wrskl7Fi3eSYitNCjusX5y7aggra+PxIxMgxFL8DkYOCrl+cgzi1EPa5c9HoiIiIiIqrY7DBdNxGRjtN1lw9yVrrjx4+rNSIiIpIYjIjIbhiMyocKHYzG/ITXH2uqFc+vfx5z31kBz3f2YlRHF1GThT1zW2DVt9rmiq1cvw8ueG1kXwTKp5J9DIs/2YFv4INZLwZDm0j+zx0YF3UMp2WZChj+WBgGaPdbPI9NC9ZhVrrZ+3n1ICLm7sYKuZmISsy+03UTERHZ0qUsXFPFyxcsLw+zkHtRFSu6cv0+ZCMjWxUzM5CsiibZ2QxFRbicZXzzruJCuioa5WTjgioSUckxGBER2ZizZzv0fCwcI0aOxujRYhkRjkd7+sO9itqBSs/Zi7isikZnk86pkgMp1+9DJi5kqKLJxYIX+WWpak2M7tMLi58Pw/cviuWFQfhmeDBeblodBrVLAZVrYnCPYHwxfpB+zIs3PsbgUgfj5OOYjhHL8wPxxWOtMNzDSe2VX3KGZct7Ok4zDRGVCgYjIiKbcYJX0CCED2iPpnc6w8n4E9fJGe5NO+PRsN7wc1Z1VMqycKFADriIcze8mV5FU87fh4yrsOzUmXGhjJv1DD6YNao/erd0h+EOVVfZCVXcfHDfgL6YFeRSIOgYXBpi1rP98XhbH7hWNQYa4zEDMKeLlWP+0QpznumN++XjmI4R7qgO14ZtMGBICN5qpOqsuZqBVFU0uXgJsapIRCXHYEREZCs+3fBgK1fg+hWc2vo9IhbMw7wFEVj640Fcui62V2+A9vd46ftS6TiarlpKzLqLmbqViTrLZpSKqpy/D6mXVKuHqducWfc6beRzWamOCY8Fo3E1Ubx0EmujlmLwB1EYPHslFu+TzTJVUe/eIIz31HZWqmJ4vyA0rgHknN2LxZ8vxcPimGGfrcVPSfJFOcE1sB2GyHOaVMfoXm3gKq7CcpJ2YPZn+jFyGRexHrHnxXGVa6J1xyaor44wOn5JffPMus2Zutddv44CjXFEVGwMRkREtpK4Hv87cAbxKyKxdn8ysmUYup6NtOO/YONh/ULGuX5juGslKhUnLprG1phY6VZm8kAUntuQgNcXzBAr3dH0Xz9hzA9iXdb9eAhjPv0Inh76rvn5oHrvGejz6U5MiFH7y+WHvRj1UcFj2i6Q2/eizwPd0eqjvZiqnX8nevX2AVq+iYHL9eOnLo1C/ZrqIBMfuIZFYOi3h/Tj1OM8PfNNuBfYVynp+5CPD5589xusWbMGi1/rVXjXsVtwQVzU52ete11BrZv6Yfbwgfj+BdXtbHxfzO7lhfusXc20Dtb2WdzTRQsZg3t1y+uy9sJAzBPHtbY4ztDybnSU/yCzE7F28VbM+zNXCxoZWZfxzbq1WCz/3Vaug8D29bT9ddmY/f0OHD+2Ga8u3o9v0nK12rSMC5i9fI8+hqqyF1o016oVD9TX/uEn45dVx/BThn6MdDo1GW9tPI4cuWKooU9IYeZ0Zt6+RgW71xHRzeCsdERkN5yVzkzLfhjdxQu4FI/vorbgvKq2B07XbUYGoymd4HrxKPZf9UErz3x/1tcl/YBZ4c/mDxXG49RqAVfj8fWgEBxUB8lg1K9JOvbHXUSrABGGjA79jM21uyPYrAXCOIuczgf131yGpztbTWdA6jb8d1gYThcv8RRP20mIeKcb9Ev/ZGx8ZThm7tFWytT9XXpjXPs6as1C2l7MjtiPn+QfH4xkMOol3uvE/Yit1QqBVr5ZOcc24oXvz5gme3i832MY3LwqMvatxeB1+QfuGNwb4q2BQWhcS6wUe/a3vBnjjq+LwoR9qtpUn43TG1Zj8p7MfC099/fsi3EBLsg5vB6PryowPQUR2QhbjIiIyoC7m7y6EnKykKWXqCzVbqqFosyzP2PRsGC82SME89cmQovy3p3Qqau2Vz6ZKUexa+kH+PifIWJ/X7zZPwxzI3YjTW6s4Y8ezw/Q9svjooWiy3ELMO2Vn/Uw3EKGonTs+Ug83nZ99gF3307aV81jH+EJLRSl4+iKdzCzv3gc8dxmfbACR2UYcuuEJ958Udu1IjM0bIfhMhRdv4zjIkiM+1B2O1uKCUu24rj8u65rGwx/wN1665aPHooyjm3F7Nn6cbO2nNFaZKo0uQejTTm1JprUrSq+irCSkD8Utb6rA+aHq1Ak1TDAszhXUJVro47Wqpct/6mbSUfE1pPiOVRF/R4D8cVg8fr+4YT6ru4Y97AeipCViDUbGIqI7InBiIjI3ip7wV9dYSUf+h1sry8fMo8txdyw4Ug4lSjW4nH2vUXYr43PcYGnv/xq5scwzB90P9bM+wRph+L1usvbcD5yIJb9pgJOfbOAY5R9FD9/8g6ubT9naoG6duB7rFohHq/ArHGdcF/fduJyHTgd8zyiPlqATO2geFyW65N/wFmxVvOuHvCT1aVlTzT+t1dvv7iwPRpzyry1yAlDOvppoSd5yw+YsCcdp7WWoVwcTzqJCYt3aN3VDM2boI+stiJtz2qM+v4kftLCSS427diI74/K7nw10biZvAGQVBlVtDkQMnHZOENe5eoY3Kcv3urdRDx+Jk5v2oFDWi/A2qhbV9ujSC0Cm6CxvNLKOI6Nh/U6o9N/bMWr3+9F8lUR0Dz9MCBsEGY/0wv3NzEg4+ROzJu/GREcMERkVwxGRER25Qy/3g/qs9Fd3Istey3HWlDZSMSGFyZbjMFZgD9voo/jNeMQEOOMZmYy/1iLPSfUiiYF2796XZUtDUDjBvJrIvbO+1mryedALE7L4FbVB40f0KtKRyKWvPw4+vTpg8FvrSsHg/nrocU/5NdE7I618u8lIwWnZZCp6gG/fJMiKOl78d8N6QVexy9n9G+uwa229lWGnTrGFiHB4FIPbz01AI+3FMHpajJ+/XYFxu1MweVi9giWs85N6SwnV8nG8U2/Y61enc/pFPHcL1qe0AmGOm5oYMxrRGQ3DEZERHbjBK/OD6Nr/ariWukMflm53a5ji6goJZ+p7Y6eM9Dn872YZJysQS2jOhZ+RZt51fJmPReRVtjU2V191MQcPuizMv9j6MsruMd4TV+RubvBTbta8UFv46QL+RZ9DE9JmSYxMFRHa61wVc4erqnasB3mPNMTrd2ckHN2N+YtXI93E+X+VVG1GPcfk9N3v/WoPutc2p51eO2PghMm6NN190SgZ3V9NrsFSzFrwzFkyNYwlyboHd4br2mBkIjsxXbBKOBpTJsxDl1K4x4d4dMQ/e5gtUJEdDtyRoOug9DPv5YIRcnYvmIVDl5Rm+i2U3PMT5jwyiDc08gF1eWwFFuw1XlvN3cANr0X8tVsdS+lbGRrU8G5oHVnPxFqspEsQs2riw9irbGhqrIBdWrIwkWcK+R+uQb3JpgxNEib8jtt/zpMt9JaBdTBywPUdN0n1Wx26bnYtGcHBs9fh31yoJqc/W5AO/TWDyAiO7BdMIpbgh9ON0X426UUjoiIblvOaPrAo+jtJ0PRGWz59nvsLXBnRrp9jEf3h5qiuihlnt2Gr18P0ydfUItxEoVb9mOiPpEDjmKV2fkLLm2w5kdtx4rp7EV9ymskYoW614/1ZTXekoOuiqmLh97clnPVOCNcOk6naAXg+gXs+34lRm84j0OqSjK08NRn60u/gAPmM+Aphn80w6wnO6C+DEVxa/F//8t/vEnDRvDTZoo4j+3rEvPvk3Ee7248oqbrroe7OZ8/kd3YLhjhCjZ9MhWRJ5riyTdHMRwRkWOqXAv+IYPQs7H4IZh5Cr8sXYV4zrZwe+vaEY20mcbSsT8yDAe3bNOqdT6oXmrNG9uQqF3oN0Wz4WZTfNuc7e9jVDIpOK31Oa0Hv5Zaxa2r7I4Hmuv97xIT8mZ++zHxjF64nIgfj1mOZ6qK4W2baK1XGSeTsEmvNHH1aYM5T7ZHvWq5SNu5GmPXX1DB1gpDDdUKdhUZVrpwZmRchU1GHxp64dVFa7Tv7TfvDS3dSTuIKgAbBiNJD0dLjpY0HA3G9OgoRGvLNAxRtSbBk7DQtD0KCycGqQ26oIkLTNui50+CtjXfMVbOSURU2irXQ/uHH0NnOabo8gms/2Ytu89VBLEp6oLXBU0feAWuWkjyR82QGegX+ROG3lNao+ZXYGesnCEP8AuPQdhLL8KzhXF6PPF4XV/EPe/8hOfmyJvTlqK2oXiwjR6H6nQMxdi2WrEMZSLmDxlYqqLFQ/0xq4M77jNo08cJTmjs4Y7RPYLxRT850YEVVWqjiUdV0z2n6rvVw2uh3dBavsT0vfjedG8h4PSe/dgnm49c2mD8E34Y4Ko/jqGaC0Y//BDul2N+shOxaWv+6bxbtOyAOY+10rvf/boWYzdZ6z5n5thpNbOeD+5/TDyOm5MpgGrPr6c+Cx8ykvF7aQ5EDOuHTqoFyuA/EKPCyz72EpUndrrBqzO6PPtvPNn0KCInzkdh40x1QZg8fyxcN4dhSqRclyEpBL4nYxD68mLTOtYYt+ffX4aicc2PYPaomdgqtg6ZOAkn3k9C3+huSJs7EjM2y2OIqCw42g1eXe8Lw6C7zaa5KszpXzAv5qBasT3e4NWM6Uatsrva/bCcmVq/MSuQ8K0vFs1VleiEVp9GYGALKzeDFTIvpuOO2i6449hSvDlyslZnPE/a9nfw8SsLRM0MDN0wCL7mjzvmJ7z+WFNx0Zx3HNBdHPuZONb6Y2ny7V8KyuUNXqti+GP9MaBhEQOvTm7Gw9/qQVJjvMFrYbLO4KclGzHbInhokyI8qY//KeD6ZRz64QdMPmDenuOFWS9006flLlI6Yhfndfcr8oa10vUL+HXJWrz7p1ovDT1exeKJnWB81IwdM/H4GxvVGhHZuMXIQuVijCQND0EA4rBaCz3SYkxZk6DKMvh000KSHoqkrSLsJMDXX07OEITOzYG4SD0USV+9L8sJSLtkgKuvqiQisoM7jH/UpgpmG/a/NAnLdqXgstlkY5mpR7E5YjJmzd1vMe33rfgZe0YOxPyl25CQmoVrqlbKvJiCo9uX4r9vzVY1paTc3cdIykbEt8sx6397cTo1U4QGVX09FzmXzuP4ns2YvcosFJmzHAuUdQGnxf6z5hcMRVLGn/sx9vP1+PXkBeSYHicbGUkHseKrGItQJIl/6DdxNfXTprV47esdOJSSjhzzb6x8fvt2YN7npRyKpA0f4stdRbZlETk0O7QY6a1F4X5/InLqh9h0o24kcgY6/3jVOqSY1ckWoeH4AiPeN0YfQXaTCwciRsmWIX/Eh07FV2pTHtXyJEoJptYmIrInR2sxKq/YYkQOwdhilL4XsxbsLzAmyGE9Oh3fP3M3qoqweTDyYUyIVvVEZOsWoxKGIiM3b31ckBJUz0OVdAZ3i6YfX1cYUpNUK5EHvIO1goXFmBIahtDQGKDPAky2ug8RERFRBWTwgd9DY/DJkzIUCRd2YSVDEVE+NgxGNxmKIuORUCsAfcPVOgajb2De4MCtO44go2EIppu2B4mQ44uEeNnCtBjxJw0ICFcTLghyjFH+qRnYrY6IiIgcyMhPsOabeZj1XF80kZdUV49h2Vtvg6OLiPKzXVe6wFF4b7ABq14tQSgykl3jxgSoGVoSELMGCDHvXpdve8GucUPejUJIQ7WiTdoAUzc6KSN2Tv6ueERkF+xKVz6wKx05BHalyyOD0SNNkH0xGcd3fIcvF6zG7xxqRFSAnWalIyJiMCovGIzIITAYEVEJMRgRkd0wGJUPDEZEREQF2Xe6biIiIiIionKIwYiIiIiIiBwegxERERERETk8BiMiIiIiInJ4DEZEREREROTwGIyIiIiIiMjhMRgREREREZHDYzAiIiIiIiKHx2BEREREREQOr1JgYODfspCefkmrICKylaysTFWistS4cWMcP35crVUwY37C64811Yrn1z+Pue+sgOc7ezGqo4uoycKeuS2w6ltts4MYieDIiejuXQ2ZST9gUfizOKu2kG1UD1+GUUPbwRXp2L/oWSyL3Ka2lKFy/e/CBa+N7ItA+VSyj2HxJzvwDXww68VgNJab/9yBcVHHcFqWqYDhj4VhQENZOo9NC9ZhVrrZ+3n1ICLm7sYKuZmKxXYtRgFPY9qMcejirNaJiIhs7VIWrqni5QuWlwNZyL2oio7ige5oK0KRVN27E9o9oBUdS6MX0f3TnZjw409oq6psqWUXEYqcRMHJBa26DNAry1q5/neRjYxsVczMQLIqmmRnMxQV4XKW8c27igvpqmiUk40LqkjFY7tgFLcEP5xuivC3GY6IyHE51W6E9g89ivCnR2P0aH0ZMXwQ+gX5wb2K2olKz9mLuKyKRmeTzqmSA/rxZ+xJytKKmUnbsPtHrehYmgaidQsP1JRhxQ4ObNqNtFxRyE3H/k3l5G/15frfRSYuZKiiycWCF/lWtG7qh9nDH8P3L4bpy/i+mNenIbpUVTuUIlcPH7z2WF98/4L+WLNaqw2lygld2rbHvGcH5b2mcb0xu3M9tC7kij05w7InRjpOMw3dNBuOMbqCTZ9MReSJpnjyzVEMR0TkgNzRMaQX2jV0h7NZCHKq6gqvVl3xaFhvNLXBL3CSsnChwHXfRZzbrooOYwE2h7fAmz18MZPd6OwiM3IgPn7AF28+0KZ8dKPLp5z/u8i4CstOvhkXrDdn3d+jN94a0A713cx+iFZ1Qb2WQZgwrAMGG1TdrajshPtbtcLsZwbhi6HBCGzoYsMr56oY/tgjmNCjGeoZzFJ8tTqo36EnXg9thvuLeuyrGUhVRZOLlxCrilQ8NgxGkh6OlhwtWTgKmrgA0dFR+vLu4Ly6dydh8nxZPw1D9Fq1ri8LJwZptURE5UVWxnkc/W0tlkbMw7x5YlkQgaU/xuO87P1QvQEC766l70il42i6+su4WfcgUzciUWf5Z3MiR1DO/12kXlKtHqZuc2bd67SR8PkZmnfA6LZ1RCkbyXvW461PovDwB0sxYckOnL4qqms1wcMPeKG+tvctaHoPRj/YBvVl38j0Y/jp650269YXGNQNAxqKkHf9Mo5vWI1xH4rX9OFSvLvqINKuA1U822NIZzlwKL/jl9Q3z6zbnKl73fXrKNAYR0WycTCSRDj67N+mcNRR1RYqfBrGNT+C2aFhCJXLy4vVBqFhMyBS1k/FV1ooGotmh+fo+4XG4IjajYiofDiPnSu+w/o9p5Bm/CV/PRtpx7dgy5Er2qpTVX38B5WSExdNYylMrHQj0jT6CE9vSMDrYnkiXNVZavSZ2mcnuhf4BeYPz+djMGr5Ie0ccpkasxdhL41HTbVHPnIAvNjnuXdGihUfuIZF4emV+nGv/3gIYz79CO5WD5T7RmDot4cwVT2Otv/nUWjb01/tY24k+ixX+5kvy6PgqfYoVMAr6P75Xkz6Me+4Sd/+hD4jhqodzBkfRx+7U3OQ/hyNx00Vx91j9fndrOK/D3JiAePzeH1KJ7hqtU3Rz1hnWvaij8W4q7YLzOprDoDfO5sxwfh+/CC+v+OtvBfqe2u5DB2jthdwK+9dd9R/SXzujJ8da4vl97ok/y4K8MGT736DNWvWYPFrvVAaDTGWLoiL+vysda8zqo7xQU0gG+Ez4tZhwoZkxGqH5+J40jGMW7ITyTJINGmFJwrmiJI5fBh7zydj3/9WYtiCHZidmCmimA1U9sIT7dxFQQTDn3/AhD3pOC1eA67n4tfDuzE25hhyxKrr3S3xuNzfzOlM2W8zv4Ld66i47BCMzFQuRp+RhDRk1HJFI7Waz8mNmLFZlYOD0AxxiHh/q6pYjBmmMhFR+Vat2h3a19xsffwHlZbJWNTDF2/2aIM1xvE0P4bhY63ufuxRVZoT7+O3A3qx6X2v6AUL1Qf66391TtmPffm6G3VH20+XYdQAEY5q54XbO2q4oGnvFzFmwQzr4UhwdWsF33dj8NyITqhv3MmpGtxbDMDT780Ql33mfFD/Hblvd/i6VYP+qRHk/o06od+4V24cdoqp5vAYTJg1EsGNXFDdrCdPdbemuCfsTUyY82Yhr6kuWn+0E2NG68/R6A5xXJ9XPsN9LVXFLbHf+6BzgavfePT54iM80dEnb3xSVfH9feQVhI3upCpuVUnfO/G5WyDCem/xuSvsA2ZVCf5dWGobigfb6HGoTsdQjLXBDBabNqzGwx9E4eFvE1UNEPGtbAWKwuANFoONXHzQyE18vX4Gm7akW7SIVMWAgAZw065u3dGixa0OLLuAt75cj9f2X0aaqrGJpj5oLC+RM44jJs4ielWuiSF31dOCIKp6o402A52ZfZv1927BfmxSVdbeTyoeOwQjZ3R59t8I9/sTS16djRt2Y908EyPWACFa9zhjlzkrfF1hSE0CoxAR3VaquqLBvf3QU/4WvBiPjbG8VULZScT+X+O1v6Tf0aQT/PRKM50QEOCjlU5vW4DzWklX88U30a+FuJDNTsGuiMmYJi8w+4dhbsQ2nBXXNdWbDMITL3ZXe1sQAWjovS7i+38Ua94LExemwfh4+VHIv/FWb9EDHe/Rd9M0mohe2pTK6dgjHmdmf3khK5Zhz+K/S7chIdVasF6ANY+o/eTy7VFVX4SWH2HgIH8t+Fw+tAL//WeIepzJ+Hp7ivbcarYchD7h+vuRnwt8W3ugungvNn8iX48vpr3zA05r13c+uDfUWmtTCZXwfTj7Spu81z99m7qoPYpVxjrTYhYULDR95EXcIy7A0+T7MSxYfH+fx5pj8nGqoWnXkaoVSpl7v9k538GuYs/yVsL3bvhE9G4iA5TZ+6B97nar15iFgxHiuT4SVnHHk9Wvi3ryq7gG3Gb+ba9aBy8P7o/hbVWIEGq62KJ9q/Td5+mmPeecpCSs1as0BhcvzBjRX3zPjSm4OurIHoRkMzYORnmhKHLqh9ik9xy5scipevc4GZDmT0KhI4fcvAvfRkRUXrTsZ5qRbvTwQegtfnFnnfoFS7/eonX5oDIU+QP2yf5EVf3RxrI7XaOhuMtbFo5iz+fmg+jHo3tXGRCysGfhQKyJXKp3U7q8DecjwzA/Il4LEvUDh+a/eDaXsg3/Db8fu9bK8yYi7ZOl2K9dTHvgH4Hyq9LUQ2+luZqIA8uXItPY9+mUuHieF4ZFzwwvlQtg3+EPwVf+xTrpB8z/5/M4fShe33BqKQ6+MhBfx+mBwK/nRIsWLSVbhI4X2uPn5fr7dG39s1gTq/+l3/UfpdCdzk7vg6XzW97Bx/L9OJUovr8rsOvrWD2AePrc+vgVoxK8d373+GutZZd/+wSrxOdOex+0z91ALPtNHlMNvm2fkLuWnj3R+N9evV3mwvZozCmyecn2DFXVpWtGJvbpJbj6+GHeiN4iYIgPcepBrI3T/4xhqFNb+1re1ayiR7nsDDlAStf6rvaY/0w3tKglAlPiDvx0VG9JquN2q/0DqSg2DEY3GYrMFdWtLjIeCbUCMNw04cJgTObkC0R0W3BCLd+ueOzRrmjAGTvL2CfYuU+/CLXsTmfsRnftwDbsMR+M0bUjGsmr9Iux2GOtq8rS/fpFurh4tvr762o8op4Jw2nzc2IB/lRNUneY9/7ZHq+1QKGGPwZ+HoN7QrrndSMrNUPRvLHejevghnesjDtJRMKPsXq9Z1P4anX5JcQMxx7VLdGoVKeDtsv7kF9m3ALMfX2BWlN+FCFWFY2tEreqtN67O2w2XjERS15+HH369MHgt9aV+WD+QDfzsOOELh2CseCxdqhXIxcZBzbitS93Y965vIBxO/CpY2wREipXx+O9euOt3s1gQCaSd6zFyK+PYa9xggqyKdsFo8Ah6Nf8JkJR+DTTLHPRY5rhyFw50YI1izElNAYpgWPV/iFwTWbHOiIqhw6s0mekk8t/I/Hdmp04Ja4yndz80Lt/R8ght1R2zq6O1brJ5e9ONwAdA/VWoX3rXterjPzq6i1BtTuZJm/IvwyyGh5Msi/icsH0gT0j9a5Yi+aqCunyO/j6o5/17nke/ujzYgSm/rgXoz6NQtvepTXOxQeu2nVZOi6fLmRMwtpEvSuhuPiuoVVYyC3ZWIZ8kyNYLPrkFBbs8j7kl3nVWjgxjtW5wbickijBe5dwWN+35r3j0S98EKrL71vNTqg/Ogb9A/RglLDva+1rRWWaha2yAeOeGIAJnX1ESL2MQ2tXYNSaM9h3HahvPkjuNmCala+6B956agAGt64jfvQk49dvV2D0lgtaGK9TpRjj9OmW2S4Yxc7HSxNuoqXI2I1OW0aaJlvY+v7I/DPUaWQ4Mu4bhimRqpqIqLzKuYLzibuxNno9Tshphmr7o11jfROVke0LsPuU+Grene6eh9FSjua/GIudlvfotPc119rhmP/Y81i0djdOy7E0Ti7wbNEJ/V6KwqTPPytkJruScMEdt8M1l83fh/Iv86MF+FW7WY0L2g6fgUlyZrqVUXh6kL8W1jOPLcWaiJKF1NuNaRY2n3a436c6cOkk1kauxOQ/Mk2tWX4uenezwu6BVN4YZ+UztOyA1m5OyDm7FxER6/FuYt6Mc5619U6sF1ItJqOgUmXjMUZERGTV9RNI+ksWnFDNVj1gqJi2IW6PfjHZ9L43ta+uD7bSWvLOx60oOHblyDm9O9XFbZhvGnBvbSnFVoXLK5Dw3kD897EWeHPQZEStPap1bave6CEMHD9A3+emHUWadv3ogpqFTe3W20dv2byabrpXyq3INzmCxfLxKxbd18zZ9H0o/2q+OBL3yQkhThzFWbNWx2uXU7B/xeuYNXKyla6QFcyfeguKJMfevLtwK+aZz4yC6ringZ6Sk8/dHiFi01njv6pcpO1bh1cX78cK8z6Llb3QWJtxIh3JFXZWjfKBwYiIqCxUbgTvO2UhDWdtdcdAKrbMz3/GwWzZnS4QfhiAtv4eojYRuxct1Xcw96Ma71K7GVre8OZ8NpCyFEffux9fa4PtAc8Gt9qVbAGOn9FLTbt9ZGVKbh/49Q3U6q8l7EeCXln2ivs+6H+MF6qhmtVBX7eLkejSWXbvTMS25+/HfOPMfGKZ1r89ln20qOC9ikqF7e9jVCLnk5CohYZsJB5IwK8WE9gYGt6F1mo670OH9boCDF6YMXIQvn9xEBb38UILVV3qKrtgwuCB4nHC8M3gZri/sKvuY6f1+xYhA8f2nschrTJPi8DmaCFbdTPOYFdpBiNDL7y6aI32vf3mvaFWZuZ0PAxGRET2VNUZ7j7t0PvJnmhURfxqPxmL3zljd9m7/Dp++yNL7043pjcayZaTU7sRd0LfnN8ifV94IPhfO9Fv9HjUbKCmsa7ZCTVD3kT3j3bi6X9ZGStTUqNj8NznUbjnsaF5jyEuVKt3fhNtm+rdhc6fNp8x7+YcXLdba2m4o9EAjPr0I9RvoWZDazASbT9ahida6lNE7/reYryVvdzK+/CLCrJi/y7/+izvtd126qKmNsCrLtr8czxc7xlg9l7YkB3uY1QyF/BVrEzyVdH4/l6Y0coF9bWrWScENm+FWf38tPCWsXc3vpL/TK3o0qEdWrjIPrFOMLS8B0Ns9DYa/O9GF0+9C1wVz/Z4uG0h/XCzTuLHP+S/QBcEDgzGhEbV9XGMlZ1wf9sgvN7ZS6xk4/Sv+/NN533LwvqhkxrkavAfiFHht8f05rZUKTAw8G9ZSE/nb2Yisq2sLAebVcejM8IG+qOWWrWUnbIba77X79JuT40bN8bx48fVGpkMWIYJz7fDHZezUL1mNRyMDMbXhY3XqDkSfb54RbvPTWHStr+Tv1vYmJ/w+mNN9S54xb3PjPGYwqRuw3+HWcxw90AUnpvSqfCpwpWEb80nevBB/TeX4enOsqXMmiwc/fZZRM39Wa1L4j1YLt6D2pbnUozP/dhSvDlysqq8STfzPpjxfHMvRnW2Ns2xCHvT89/LqO2CBPRrYuX7VwTjMUXK932/mffOB74zYzD0nsKna85MPYqdyz7Bz1GWA+NuQdtJiHinm37vICRj4yvDMbOMp+yWoWj4Y/0xoKH1wXE5Z3diXvQR/FTIz9bevfpjdGtj22gm9n27DK+dVKv5+GDWi8G44TDQk5ut3ky1fmA3zO4mQ40uedNSjN6ZN24on8oueG14XwQW8g834/BGvLnqTIHWpFvS41UsntgJxlsjZeyYicff2KjWHBNbjIiI7CknG2nnDmLnqihELLN/KKIirFiKPSnQQhGu7sZvRQ1iv7wAa4bJiQDicfai2Z+lc7PExWki9qz9BIv+U7yL6iItEudRkw1cM7ueunYxBfvFY3xcRBgomUScfn0gPl74s3azVFOXLPF6zp/YhlXvDLQIRXZ2i+/D2ddDMX+FxffqtpOIhJXbcFa9/mtXxWdNLOaquzVF8IiZGDqmkJsL34xydh8jXTYivl2OWRuOIDnD7AORdQHHt6zFm0WEImnt1l04lC6Pk1N8/4qvrIaiW3d6z25sOqv/QVCGtW9izZ6rpevpeCtiGRbvSERatnG/XORcOoN9/1uJsaUdiqQNH+LLXWU9AXv5whYjIrIbh2sxKqfYYkR0G2o0A2GfDkLTqllIWD5JZEWLVqEGIxH8zivoLm9KfPZnfBw23DRJAVGhHp2O75+5G1VF2DwY+TAmRKt6B8UWIyIiIqLyrnegCEXi6+V4bLIMRdKpBTiRpGZhq1rN5jfApducwQd+D43BJ0/KUCRc2IWVDh6KJAYjIiIiovLO2Luqpj96vfMmPM0nkWgwCE1f+glP3KuPP0o79LN+Q14ia0Z+gjXfzMOs5/qiiZxv4eoxLHvrbTj26CIdu9IRkd2wK135wK50RLehYkz4IWWe/RlRo4aX0tgzqpBkMHqkCbIvJuP4ju/w5YLV+J1DjTQMRkRkNwxG5QODEdFtquYA+P5zFHp1agr3mtVwh3H259wsXE5JxMFfFmHdPFvdz4io4mMwIiK7YTAqHxiMiIiICuIYIyIiIiIicnjlMhgNeTcKCycGqbWbEYTJ86MwPVytEhERERERFaHUg5GzW204q7J1znB1K3oPIiIiIiIieyrlMUaBGD9rNBocjsS/PtuMK6o2jzO6jJ+G8IZ/4LOJ8xGras3Jlp6AWmoFCYgJnYqvRClo4gKMC5RzCgonYxD68mK9HDwJC8cEQN8i94+Hf3QIfLV14VIcZo+aia1qlYjKDscYlQ8cY0RERFRQ6U++4ByMCdPC8Y+DluFID0VPilC05PX52FQwNZnIrnTdzs/BiPdVnAmfhujgNFPAydvui+nR3ZA2dyRmbNZ31cmudGPhujkMUyJVFRGVOQaj8oHBiIiIqKDSH2N0ZTNmTY3En37heOPZYNWtToSiZ/9drFBUkAg5wb5I2JzX6vNVfAIM7rJNKAFplwxwNTUPERERERERlZxtJl9Q4ehU8ydFOOqJnjIUNT16E6Eoj2+fKERHq6WPSEJu3iIybcWMUTGA2sbJFoiIiIiI6GbYblY6EY4+eXWJCEdDbjkUARmImxuG0FCzxTRuaDGmaHUyIC3A5GCtkoiIiIiIqNhsO123DEcThmPkxFsJRVux5TAQED4JRU/gzW51RERERER0c0p/8oXSYJppLm9WOjnhQkhDfbOUsEZOrDAY081moMuItZiwQXa546x0ROUGJ18oHyr05AtjfsLrjzXViufXP4+576yA5zt7Maqji6jJwp65LbDqW21zMYxEn+Wv4J7a4nfOt75YNFdVO5yK8D6MRHDkRHT3robMpB+wKPxZnFVbyk7e+4rseHz9UAgOYgaGbhikX9eI5zlTPM+y/anZHdMemIx7TbMFK5d2YtqPr2GDWiWqKGzbYnSzNs/ECK17nB6KpK9eNutGJxZ9tjljNzp9MYUiKXKqXs9QRETkOC5l4ZoqXr6wQpWMspB7URXJsTzQHW1FKJKqe3dCuwe0Yhk7h6tXVfHqRaSpoknmxTIORUSOp3wGIyKiCsr9vjCMHj1aX8I6w13VUyk5exGXVdHobNI5VSKH9ePP2JOUpRUzk7Zh949asYytQFqGKpocxflyGd6P4dtlD+F+48LWIqqgGIyIiOzFtT16trbsk0K2kYULBfLQRZzbrorkYBZgc3gLvNnDV+ueVvbd6CxcTi/QYnT5r6OqRET2wmBERGQXrmj/QDu4Vs7FmTPnVR2VuqPpqsXIrNucqXudqLNsTiIqQxfEZ1Nj6jaX173uWq7+lYjsp3xOvkBEFZIjT77g2n4QBrVzRe6ZLYg62hjhXbzEBXs8vovaAnvHpAo9+YJp8Ho6dk1vgzWyy9QDUXhuSicRTY9iVY/7sUffMb+aA+D34nj0uLcp3GuoumwRqKpWwx2iaH3SAX94Pj8T/bs1hWdtffzKtavpSNi4ACvf+8SiS59xoH0i1vQPxsGen6F/eHf4uunnv5Z6FJsjn8fmFfH67vn4wDXsTfQf2An11f7ITsfpvd9j5Zuv47xl2FMTUKRtfwcfT8/CPe+MR5e7PFDTSWzLFcf9thTLpr+DNGsh0W7vg/69ODIoAgMf76S9D5J8H9Z9+jx2rbf2PkjisUa/gl4PBOa9F+I1nf1jG9ZFvIOEuERtL53Z5AbmLm7D/EfCim418hiKe14V71sL8b5V1asyxXPbHvmO+B79rFcUUPB9KPy56UwTgxxbijdHTtbq2i5IQL8m0L9/ryzQ6qzqMQkRY7uhHo5h2SvjsfCgqi9VxskXZFe6sfhM1RJVVAxGRGQ3DhuMnNvg4cEdUS/3DLYsWYX4hv0wmsGo/Gg5A2HvD0JTYxCwomAg6I62n36Gfi3UBbCFTHGhO1dc6OaFAuNFejr2bz+Hph2borrakicdv4owty7f+Bcf1H9zGZ7u7KHWLaRuw3+HheG0efowzsyXFI+Dtf3hV1PVm7kc9wlmTfhArSl2fh8S9mXBs7WHlfchEevGBuPXA2rVqOZIdJ8/EcGe1h+rYJC4yWBU5PuQJd6DZ8V7YBmOxPuwQLwPTaw/N/PgU1qenPU9hvrpqS374CI8PGGJVi5dDEbkWNiVjojIppzR5kERimQXuh3rEX/T93Qj2xiE7q+pi+CUeKz6YDim9fDFmz1CMOuNpThqnDXMQs0X39TDQHYKdkVM1o/pH4a5EdtwNhuo3mQQnnixu9rbnAtayVBkftyEBdiTqm+7b/BH+YPCYx/hCS0UpePoincws796bh+swFGZNtw64Yk3X9R2LcBbD0WXDyzFx4Pk83seX8ela5tqBvRGK61kZP/3wVeGInHc5k/CtLE/0975AafFMTIM3hs6VNsrjw/8ZhhDkXgv1n6ivyZ53D9fR9Tao0jTjjW3AGse0ffRlm+LM2anO+6bqr8PmWe34euXQ/Rjh03G19tTkIlq8H3sTdzXUu1uNGA8ustQlJ2In03vnfG5xeM8//ZMdFtgMCIisiHnu3uhY10g98x2rGcqKn/Ch6Kjp/gq7yPzTAj2xPysxiPF4/Iv1i62JXER3NVHfM3CnoUDsSZyqX7M5W04HxmG+RHx2niR+oFD4SrrLWUfxaoX2ucdF/eOCCI/6y2HDfzR0tTC0wn39W0HuXo65nlEfbQAmVrTi3hucn3yD1qrR827esBPVlshW1FmjZ2MtBSxcnkFDr6+FgnalrpoYD5ldRm+Dz8v36atXlv/LNbE6sHN9R/+2leTjm+iR0s9FO16LwRR732gvybh2qFFOPre/Vj0RhHdzopLBJxO3uLr5d34elQYDv6muvSdWoqDrwzEsjg5JsgH7QYO0OuNvF2075MMlXnvnfG5hWDuhNJtLZKWrN6GZBlYrx7D6vm2aC0icjwMRkREtuLsj56B9YCcM9i+Ph6MReVPfX8fbZxK5h8bcNC8O1pRunZEI3kVfDEWe74tOG4ES/fr3bQ8fdBIq8gvYeX92GPZTWz7fiRqrTJ18Y+OWo0wAI0byK+J2DvPyriWA7E4LSeYqOqDxtbuy3NxG5ZZjlG5bH066DJ5H2KGF3gfCpta3bVHK31q+1M/Y8NaK49VStwDm2oB5/IfIkAWeB8ScfSo/tjuvp20ryZ7EvVg6/0QRn0eAb/OFtttYcNMDH+0D/o8aqvxRUSOh8GIiMgmnOHfsyO8qrALXXnmcaeL9vXsia+1r8XiV1dvAandCU9vSMDrBRY5+UNJpSNXa5VxQU3ZciN19VH3ufJBn5XWHsfK+BkLxpaLGymT9yG3+AGnfn19jFVa0n6b3vTU00N/H2re+4qV1yMWOXbLmu3DsSgyXhtLVbNRdzzxZhRe/2Evnp75GZrea9H6RUTlFoMREZENOLfsiXu9nNiF7nZRgot0yNndbCYdl42zcajZ0Oyq3LwP+VXRpp+zvVt5nMsRIZg16HWs2n4UZ2VCquqC+vc8hLB3YzBm5it6VzsiKtfsF4wMAXDu8BQ8Cv3LSRVUuXcE3Dp0QTWDs6ojIro9NWjspV3XOnl1Rvjo0RhtvsgZ6aRa/nhU1fWzHMxNdpGjmlRcPS0H+ws166K6tXBy5Jx+M045u5lxYL/VpZCpwa2p2RTuWutPFq6qsTP4MVHd9FNObW3t/MZFTUt+C8rN+1CIP8+pSSNc62pfbcX4OHJslvXXopbCZphLWYQ9r9yP+XKSjGHvYNUuOWED4H7PUPQK03chovLLbsHI0GcEGndpj3pdR6D+vY1VrZEMRRPQuGsAvLo8gWZ9uqj6sjXk3SgsnBik1m5R8CQsjF6AycFqnYiIytzp03oKcW3UyWLa6O5o++FQtLI2ZfOP8dqMa6jdDC1N44FuTc3RnfRuZxeP4MAurUrYhkRtkE5TNBsuJzmwnfLyPhTm7MFErVvgHS0fKjgjXCkyPo5r006qG+MtOLUAeyYNxIYTcqUa6vtZCZ23Qt7H6Ls1WPPdJxhR2OwbRFQiZdCVrgpcu46HV5s71Trg1Ga8CEU+YktJDMb06ChEm5ZpGKLVB2HyfLE+f5IoWaMfV2qBx1L4NES/O1itmNk8EyNCR2LGZrVujRaejK+jeIod3m7i3ER08w7GzMO8eYUsm87oO8n7GKm6VZaD8cku0jbsV4PmuyPspZGoXlNcfN/7JvpEFnFPGizCb3/I2ck8EPyvneg3ejxqNlDBpWYn1Ax5E90/2omn/zVSr7NQ09Nsf4/uqP/8TxgVoq8n/Djb7P46K7AzVu/a5hceI57fi/BsYex14Y+aXV/EPe/8hOfmzFB1N68s3ocSifwB+7TJEHzQ6/3N+mMZb+3UYBCavvQThpbG4yzfoD+O+L48HbUMbUMe0t4LTYOHUD88AgOjNqO7xWQXnv/ajFEfRcAvZEDe85Lfo5BX0EbOciecPbJIL5SSJ/t2Qj0ZWGs0Qd9RT+qVRHRLymiMURW49ZoMz5Z3wqnlc/Dt1bhkoUiGj+gQYE0YQkPVMjcN/qaAkCH+C0DfcLVqJmhit5sYFEtERBXS9tex4YC8uK+G+r1fwaSVCZj67lDc410NmYeWImq73rUqv0QkvP4+dsl7D1X1QNtBL2LCF5v1wfkrozDhxaEIbu2BmoWMEXLvbLb/0gg8PUCfCS0tbgGWzdWnrja6/MHrWHVMPj8XNO09HqM+jVETAcRgwr/Go0/HpnAtjbFIZfA+lMwnWPXpz3oLVQ0f/bGWyvdBLF/MQFhvK+/DA1F4Tnuv1GKcOKF2J4wyqx86Rq/WXP5APM42rYtgdc926PfiZ9p7oT/OZ3h6eHe08qyNAg1oVWvDs3V3PPHiR3nPS36PXhRhSjwveaPbNZFqXyIqt8okGF3/W/yvkjPcQ95Ai5DmqFFJrIu669rWGxmM6X08EDc3DFPMf8hsnokp729VK8CRwwnw9bdsuRmMvoEpiIvNUOs62epiankqrKVJC2NRmG4MW1oLjPG4YrTEWLTYmD+m1uIjzz8mAAYR20KMddb2M9FbxkIaAobAseo56K1h+Z/jAkx+2fq5iYgoEQfHPisu/BNxOVdVZcubqb6OWf+crM0yZtXlBVgz7HksWhuPsxdloFBys5CZmog9az/Bov8U4746Yv/LZ+Px8yfP4+MJ71h5vJ+xZ+RAzF+6DQmpWflmmcu8mIKj25fiv2/NVjW3oozfh+JYOxzzw1/Hml2JOG9+w1nxPM/uW4GvS+1xwsT34hP8vC8Fl83v35SdhfOnduPnue9gncWYrrP/eV+fdEG8B/m+R6lHsWupeA9HFvEe3iTex4io9FUKDAyUMQXp6ba9LbPh8dlopDXVHMfp1ddwpzEQSX9fwfmY7ajctyfc5HrCauz/5gdtUwEyQASnYfaomciLQeZkYBgGRH4h9pVf87qvBU1cgHHuGzH7fDcMxxcYoQUpESbeBaa8vFjuIY4di2aH52jbZCjpdl6UdwRh4ZhmODLXeC4ZQLohzbhu/pxk2T8eodr5zMiQMsYVG0On4oR6HkXt85VYNT7fAvuZMT1HYyg0ey6NzLdZnJuoLGRl2XKiXSquxo0b4/jx42qN7GMk+izXp9dO+NYXi+aqaqJyrTumPTAZ99Y6hm+XjcVnqpaooiqTFqOcAx8jYd1x5OhrSF03A2cPmP/55wZSkwoJRea2YsthICDE2GoUhM7NgbgYy5CxWIUiSR6TvzVJHjd9TABS1pgHrG7wPbkxb7xQZDwSarlavYGdNVuTUwA3b3HmohV3v3wipyImNQB9J05CN7c4RJi1ohERERERkXVlNMYIyN37CY58NgMHPvsXzuz9S9UWUzHDwtb3NyKhob/efS08BAGpZmHGjGyZMXZXGxdoULU6Q2CACEEx+bvtSQ1DTMfI8U6+8IB3cWecE+Fl9uFmGCePLXSSCKG4+1n4KiYOHoHNcCSysFY1IiIiIiIyV2bBSLYUXb+UiNxL1gZ0FkFrnWmGzsUKIYuxOtYD3SYOxuRgDyutRWbd1dQkDrMtxh9lxMYgzi2kwLicjNg5eRM/aMsNZpyzsPX9kfrjyeBjbRY7pbj7mRsSEoCUkykICC9+mCIiIiKyrgkeG/gDfjIuD7yFHmoLUUVShsHoZsmwAwSMsbgnUPAkTLcyqcDWHUeAwBAE4Ai2WAkujdwNyDifoNZkd7v8LUZAAmaMikFK4FhTONLPOaxU7klU8m51+qQLpgkWLIVPQ4hbHFa/LAJdITPzERERERFRfnabfMG570z4aJMvnEDi7E9xRas11wX1xvWFqywmrMah1Zu02kLJSQb6mE28fSlOTchgnHwhrwVHTlDgH583i51sJco3+YLWFU7KQMJJwOO8vi3fxAba5AUBMJyM0SdDsHz8wuoF2bqkT+BgNvmCqcteAmLMJkSQjylnmpPHRGCYlf30CSJcN6vXY3xecvvcNHQznyRC25a3bn5u02QNRHbEyRfKB06+QEREVJDdghEREYNR+cBgREREVNBt2JWOiIiIiIiodDEYERHRbW/gwIGqREREdHMYjIiIiIiIyOExGBERERERkcNjMCIiIiIiIofHYERERERERA6PwYiIiIiIiBwegxERERERETk8BiMiIqISc8FrI8Pw/YtiGd8Bj2t1Ppgl1+US1gT1tbqKLO89mNVaVdnQ8MfUe/tiL0xwkTVm34Mx7TBA24uI6OYxGBEREZVYNjKyVTEzA8mqaJKdjdOqWGaquWPCw72w+PkgDFdVt7PLWcY3/CoupKuiUU42LqgiEdHNKrtgZPBBlUZdUKOuJypXUnVERBWKOzqHjcbo0UUsIX5qX7q9ZOJChiqaXCx4wV6W6ngisIk7DHeUw7+BVq6JwT2C8cX4QaoVaBC+GR6Ml5tWh0HtYik5I1OVjNJxmmmIiEqR/X9aGjrCbehM3DVmMlo89gSaPPUq7npxGur5e6odbm9D3o3CwolBao2IiCq8jKs4ropGGRcuqhJZMrg0xKxn++Pxtj5wreqkap1Qxc0H9w0YgDldXAoNR5qrGUhVRZOLlxCrikREN8u+waiSP9xCB8OrnrP2wNev5SD3b1lfA05OOdouxXHr4SMIk+dHYXq4WiUisqlLiF82D/PmWVliDqp96HaTekm1YJi6zZl1r5O/28iKqhjeLwiNawA5Z/di8edL8fAHURj22Vr8lCTfPCe4BrbDkGr63uaOX7qsF8y6zZm6112/jgINeEREJWTXYFQ5sC886+jlK3EL8ceHL+DAB2/j2PcLcWbvX6JWBCYXdq0jIqLy74K4QM/PWvc6KypXR+8O7TFv1GOqG5lYxvfG7B4+6FJV7WPG1dUd43p1wxdjzPZ/fiC+eMwPj2uTEOTp0qNv3j6D26iWFx8MMNaZlr54rZCOGgaXOhjXpxcWW3Rze61VTbiqffK7jAvnxfP0aIhZw43PUR7TAaPd1S4m2Zj9/Q4cP7YZry7ej2/ScrXatIwLmL18jz5Wq7IXWjTXqvM5nanva65g9zoioptXKTAwUPu7Vnr6Ja3Cdqqg1qAP0bCBKOYcxvGPPsYV8chVek6DR8pUEYzkPg/B66UuyFw0FakFRrLqZEtPQC21ggTEhE7FV6IUNHEBxgWqxveTMQh9ebFeDp6EhWMC1C8HuX88/KND4KutC5fiMHvUTGxVqwWET0N0H+PexscbjOlm58iInYMR7+tnkK1Z3c7nred7XlYfS7ZejTW9Jv1cvuL83ZC25gia9VHP3fxY7TW5YuMaIMT43MxfM1E5lZXlaBcxcozRo/CvJVuMorAlRVWXscaNG+P4ccvOX7e3gQMHYtmyZWqtHDN4Ycbgbmhh+j2W3/F1UZiwT61o5Ex3wWis1gq4noxNX67HLNW3TAajCW0t0pJV6YhdvBpvnVWrSouWHfD6Q01gsPpn00Ss+GAzItSaPitcXwS6pGPfngvwu7shqlgel52Itf/djHnFas4xns/a+0BEZHt2bDFqhCrGPzVdvYgcGYo6v4rGbVzg2mMm6nV5Co1f6gs38YPRa+hseLVR+1qYMSoMMSf1ABGqQpEML+OaH8Hs0DBRJ7YjRHW1EwFmTDMcmavX6/svxpTQOYgTOTBhjai7YSiCCEP68bNj01S9PyCPlfVz44DAYZgcrG8yp4Ui8+d1WG0w0UNRs8Pytch9YnBEbRG/PREgzhlhPDY1AOPeHay2Sb4I8Y9Xx4nX42Z8zUREVD5Vx4THVCjKSsa+/63GuA+jtK5k4+avxYp9ycgo2CgiMswZ7NuyDu/OX4rBYt+HP1iKCUt24HSW2Fa5HjoG1dP3EzZtWK2dT1sW71Xdy2SgUXWmpWAoglszTFChKOfsQayIUo/34VJMXrIZ+84Wlm5c0LqtCEU5yYhdtQzDxDHDPt+K4/L5VfVBu4Dq+m43Urk26tSUhWzkyGOJiOzMjsHoKq5b/KDL2fI2ju9NR9qGSUjevBwn561HGtKR/P0MnD2gdrohES6CfZGwOS/gfBWfAIO7bElJQNolA1xNzUMlM8RfnHeNCl/C1vdn6uXIqZgSqVUBm7fiiNXGtiB0bg7ERZo9L3F8vhAWHIRmiEOEal2CCG0zTOWM/MfGxCGjoT+GqHWt9crUQrQVMzaL19w8SDwqEZU/teA/MG8muhFPhePRhzrD707jwHNyBIaWd6Oj7FomW1Ei1uO1/ek4fV3fdvrSBUSsE3V/6Ot5EjFhwUa8tuM8fr2Uq4JOLo4nHcPkLYnaWpW6HrhPK92awcF3o54MRYlb8eri3Yj4Uz3e9VwcSkrEa7JO29OKLPGaFq3HW4czxe9xIC3tJL7/Q5+ir94/PLSvN9IisAkay6uSjOPYWOAPiUREtmfHYJSIq39e0YsuLVDbq4pWzNn6MZIPi/Lf6chN34W/1otwlJiI68Wfi0Hj2ycK0dFqkd3L3LxFSBCBYVQMoLaVbLKFIHi7ZSAtQa3mo0/eoD9eXje4/HzhWisFSZvVqjW+rjCkJuUPS4XZnIQie+EkpHHgKdFtwqm6M9wb+qPrY0PxcJtC+lRRhdOnqQ/kb76MQ/uL2bWsaKbWJfGb3MrQpBKqhzYN5Fku4+D2kzikVxbb6S2bMc9iqvJNKcWfmc/wj1aY0tlLlLJxfNPvWKtXExHZlR2DEZC1cxcuaSOaXOAZ9gbqP/IcvPr9E03HvQE3LSiJ8LR7PXJKPAwhA3Gm7nJqMXWRk13nZJ0MSAusdnkrnLXWJr37m+tm42Pp3fKs84D3jR5PC3DFEOwNj0tpOKFWCyhJyCIiOzmPLVEWs9D9NxLfrdmJU9rPjaqo16EP2lsf0U4VSk00qavHl+Q/S3bzHdNkCOOMkyGopZeP2qMUuHugnvb0LuC43hBVItnWugAWk5y++61H28BVXJGk7VmH1/64hZMREd0CuwYjpC7HmV/PQmsMquQC16bN4eZ7J6qIssf9fbW/pJXcVmw5DASET7pBwChptzp53gz49plm6r4WNHGSKMuWILOWJNkdzuoffBcj/qQh3/MaIo6Xnd1MU4VHxiOhVgCGm8YGDcZkU1kcG2IcUySOCQ8ADm81Cz6+6GZ23PQ+vkiI5+QLROVezhWcT9yNtd9uR7LsRlXZFZ7/0DdRRVa54MQExSBbUuY80xv3t3SHoZoNu17eIadIsj+DexPMGBqExtVEKNq/DtM3pLP3AxGVGfsGIxGJ5LiiQ19+jaS9h5GWegVXzyUief3HOLRouR6YikGOt0HgWERH66Fl6/sj9ckJjF3pTN3m5OxxeV3e5CQH+tggfUyO1v1ufuGBSp53dqwHQtQ5xjUHTsgWqDUpCBijzhvuipRCWoy+ellNmqCOD3G3bNGRrVkxSNFei9wnBK7Jxj0yEHfeX9WPRUBqjGmmO10CjmCY6TiPWONrI6LbQnYyzqvexeQI0nFaNRQZXIo5GQGcMKSr3pKCSyexdsm32sQGpgkU1t1E005hzl7Up8pGDdQpzqR2pcDwj2aY9WQH1JehKG4t/u9/50vchY+IqDTZcbpuKj4Z6Lohbe5IEeBUlTnjdN3GWfmIbhOON113Eep2Rtgj/qiFKzi4KhK/nFH1dsDpustG66BeeOs+dyDjICLm78YKNfFC4bww64Vu2oQEp9dHYVycqlZc23bDFz28xC/wvZi1YD82qXoT91b44ikRrHAGP83eiNlFzvRWHROeGogu8untX4dRIqTcuOXmBtNrtw7Wu/ud3IyHv80f4lx92uA/j7USoS8XaTvXYuwmG7cUGXrh1U//D53k64tfgtdeWgTeWpmILNm5xah8kvce0ltezJZ8U2MTEZUOJ2d3NGjbG2EDZCgCsk/vxE47hiIqO/t2HdJnoTP4YfgzHTCuUU3UV7+FXQ11MLxXT7x1l76uu2y6YWw9vyamm7/Wd3PHuIf76qGoKOdTkKzdg9YLXR9pgvsNRXXFy8TX+/UPoqFVT8x/uAkGuDmpewA6obG3D94a3A7DtfVbI++VNEcLRdlI/tUOoUgK66eFIsngPxCjwtX9BYmIzLDFqFxiixFVTI7XYuSHfqO7istS67LPbMfymL1Iu2HLQelii1HZKfoGqgVbXrp06Y0J7euoNQvpIlC4uMBQWIuRUPjx1m7wWhWD+z2Ex5trNxOyorAbvJakxSivFaxo1m9Ae9N6vIrFEzvB+E5k7JiJx9/YqNaIiHRsMSqX5NijQkKRtHkmRjAUEd2ecrKRdjoevyyPQMQq+4ciKluHDuzAqM/X49dj55FhPpVb1gWc3rEeEfFqXdm0aR3mbUlEmmnfXORcOo9DG1Zj3Oe/q3FBhZPHz9pwBMmXtKajG8jG4lUr8dqK3Tieko4c42fzunjM1ET8umInvlZVN8+pbK48NnyIL3dxWgciKhpbjIjIbjjGqHxgixE5pEen4/tn7kZVEQAPRj6MCdGqnohIYYsRERERVVwGH/g9NAafPClDkXBhF1YyFBGRFQxGREREVDGN/ARrvpmHWc/1RRM538LVY1j21tvg6CIisobBiIiIiCq07IvJOLhuLqYMHY+FnKebiArBMUZEZDccY1Q+cIwRERFRQWwxIiIiIiIih8dgREREREREDq/sgpHBB1UadUGNup6oXEnVERERERERlQH7ByNDR7gNnYm7xkxGi8eeQJOnXsVdL05DPX9PtQMREREREZF92TcYVfKHW+hgeNVz1h74+rUc5MqpHyrVgJNTjrZLcQx5NwoLJwaptZsRhMnzozA9XK0SEREREZFDs2swqhzYF5519PKVuIX448MXcOCDt3Hs+4U4s/cvUSsCkwu71hERERERkX3ZcbruKqg16EM0bCCKOYdx/KOPcUU8cpWe0+CRMlUEI7nPQ/B6qQsyF01FarJcL0i29ATUUitIQEzoVHwlSkETF2BcoLx7m3AyBqEvL9bLwZOwcEwA9C1y/3j4R4fAV1sXLsVh9qiZ2KpWzWnndD+COLcA8ZjGY/0Rrx5Tkq1X/vFhmBJp3H8jYhCCkIZyawbi5o7EjM3artble37iGa7Rz6XXu2LjGiCkj3q2Zq+r4GOZHVvAYEw3e83afgmleX6i4uF03eUDp+smIiIqyI4tRo1QxVUVr15EjgxFnV9F4zYucO0xE/W6PIXGL/WFG1zgNXQ2vNqofS3MGBWGmJMicsTOQagxoIRPw7jmRzA7NEzUie3iYl7vaicCwZhmODJXr9f3X4wpoXMQJ3KgvNAPLSQUmTRsBkQajy2GhiFaUJKPNzsWCAifhKI6/QV1cM17fmsS4NtnGoaobRBRJsQ/Xj138ZzdjK9LMXus0Llx8OizAJOD1TYTPRRBvla1X5raUjrnJyIiIiK6/dkxGF3F9SxVVHK2vI3je9ORtmESkjcvx8l568VFezqSv5+BswfUTjcUJC7WfZGwOS/gfBWfAIO7bAVJQNolA1xNzUM34eTGolt8LJ2MMbWqbN1xBBm1XEUkLNzW96fmnT8yXjxjcwmIMbZ8iVc3Y7N4Xc2D8oKW2WNBvP6NJw1o1sEihoX7w9divxmmVp9SOD8RERERUQVgx2CUiKt/XtGLLi1Q26uKVszZ+jGSD4vy3+nITd+Fv9aLcJSYiOvFn4tB49snCtHRapFdw9y8xQW+uNgfFQOobXafbGFzElJUsXCyRcf43M26+FmTkIYMVbTmxPmCW4PqeSDjfP64VaibOD8RERERUUVg18kXsnbuwiVtRJMLPMPeQP1HnoNXv3+i6bg34KYFJRGedq9HTomHIcixPKrLl3ExdZGTXedknQxI5a0rmAxF3ZBmeu4xFi1GFnxdYUhNMrWMWWrkbkBKcsGteutZMdzk+YmIHI8LXhsZhu9fFMv4Dnhcq/PBLLkul7AmqK/VFc7gUgfj+vTC4vGD9GOMy2M+ag8782yFxeo5fNOvnl7XOtj0vOa1d9LriIgqKLsGI6Qux5lfz0JrDKrkAtemzeHmeyeqiLLH/X2htyGV1FZsOXzjsTyl0q1OO4cv/I0tT+HTTBMT3JRgb3ggBUnGrnSy25sq6nzRzTTmR4SoPr5IiDd2fRMadssLetpzSUC87PomJ26I1scqad35GobktZaJbZNNLWc3eX4iIoeXjYxsVczMQIH5grKzcVoVrTL44K2hvXF/S3cYqtoocFRzx4SHRfB6PgjDVVWRrmThsipmZ1xVpTwZmbmqRERUMdk3GIlIJMcVHfryayTtPYy01Cu4ei4Ryes/xqFFy/XAVAxfxcQBgWMRbbz4f38kYlIDMM7UJc3Ybc68m9pYNDs8R42Z0cfTaN3v5t8oUJkzO06e0z9emwjipm2eiYhYD4QYn6O/jF7mEnAEw9TzD4FHrPH5KyePiMCiju3jgbi5ViaIEI8xQps4Qe03ppnZg5TC+YmoeCrXglfbrnh40HAMHzEao0erJcRP7UC3l0xcKNC7+CIupKviDTzeowMaVxOFSyexNmopBn8QhYeNy7eJ+k63qo4nApuI4HVHMX/Vp2cW7E6dcqHILtZERBWJHafrphIxTtddyGx4xum0TdOSl5Stz09khaNO1+3k1R4PP9AO7tVVhbnTv2BezEG1Yh+crrt0DH8sDANkr4E/d2Bc1DGc1rrX9UWgC5ARtxqD1xeWkoz7ZWLft8vw2q38ga0osmvc4DYwIBErPtiMCFVdONkVMBiNRSl501KM3plrdo7LiI1aibf+1PckIqqI7NxiVD7JexHprSZmy7uD1dZSoHVts3wMTn1N5BA8OmJQiB6KslOPYuea7xAZMQ/z5qnFzqGISk/qJRX0Td3mzLrXaX9yLEwN1NRCcjayLWZrLVtXYexBZ+o2Z+ped/0Gr4mI6PbHYCR89bJx8gOzpTRbSmR3Nsvzh97gxq9EVAE4o03nNqglftJe2v89Ir5Zj92J53HFePFMt7ULOZbfSGvd66ypiipVVbEIXXr01SY9mNUauD+oGxa/EIbvXxgo1sXBlV0wYfBAfWKEZztguLpLuPEYbdFaeiQfDDDWmZa+eM1T22hGBDXLPu3WutcREVVQ7EpHRHbjcF3pPDojbKA/aqXtxtKlO81urly22JXO/kzd7m4oHbGLV+Ots3rImdDWBaf3H0SdVn4q5Ahpe7HpnB+6NM9LVzmH1+PxVcmmY24s73GIiEjHFiMiIhup5euNWuLrpZNHyk0oottP/btEKPpzB177ZCMOyUYqlzYiFAGnNyzDsHX6RA1VPD3QRXzdtGF13iQOi/eq1h45xshscgdtYSgiIrLEYEREZCP17nTVvl7Kdka7Lg9j0PARebPRPR2Oh7s0hSt/CjuEiG/NQ8lm6O11stXGvF4uVgJLZbHfhmPYl30Zl2Wjq/zMpO5HxJ5MpHHWOCKiUsNfyURENnKHuj2NV/t+aN+yHlzN71dTxRn1WvbEoCc6ox5/ElNR/jyAiHxhKRuHfj2IWLVGRESlg7+OiYhsLTMNR39bi+8iF+oz0S2IwPe/nMCl62JbbX90C5Qd7ogKUeBmsZm4fEEViYio1DAYERHZ2JnflmL9nlM4f0VNgXw9G8kH12HN7/rII9e63tpXIiIiKjsMRkRENpJ+WZ/O2bmm9RahtEtX9IJzLW2SBiIiIio7DEZERDZy5tx57aurTzM4a6X8vOrqkzPkpp0Hb5hApe4aoN+WyAmGalrBpvxGfoLv16zBmu8iMKmXaXJxIqLbRukFI0MAnDs8BY97/VWFpSqocu8IuHXogmoGa5cIREQVzKEDOCGvTD3a4+EH/FDPeNuZKrXQ4N6H8aCf/Fl4CQfjTuj1RKXpfAqStUZLL3R9pAnuN5hN/lHquiG0RxNoH/Ea9dBtyAtor9UTEd0+Si0YGfqMQOMu7VGv6wjUv7exqjWSoWgCGncNgFeXJ9Csj7zbQtkb8m4UFk4MUmu3KHgSFkYvwORgtU5EdP0otmw/A3ltWqtxVzw83DhVdxh6t60nLiKzcX73emxJ0XcnKl3JiPldn6WhincHjHt2EL5/MUwtffGap7aplBxD4jm966jGvR7uVkUiotuFDbrSVYFr1/HwanOnWgec2owXochHbCmJwZgeHYVo0zINQ7T6IEyeL9bnTxIla/TjSi3wWAqfhuh3B6sVM5tnYkToSMzYrNat0cKT8XUUT7HD202cm4hs78qBVVj07RYc/esKcuUsdNL1XFz5S4Smbxfhu53JqpKo9G3atA6zNhxB8iWz0GITiVj46Tok2vphiIhsyEZjjKrArddkeLa8E04tn4Nvr8YlC0UyfESHAGvCEBqqlrlp8DcFhAzxXwD6hqtVM0ETu8FXlYmIyoPcv+Kx/ttILFwwT03XvRCR365H/F9qljpyMImYUNjNXM1s2rBav+nrt4mqJh1vLbA47ux+DJb7LNiPTaoqv1xs2rMTo+d/q24ga1yKfuybcnADDujD6oDkROxURSKi24VNgtH1v8X/KjnDPeQNtAhpjhqVxLqoM/6xtGiDMb2PB+LmhmFKpKqSNs/ElPe3qhXgyOEE+PpbttwMRt/AFMTF5r8PuGx1MbU8FdbSpIWxKEw3hi2tBcZ4XDFaYixabMwfU2vxkecfEwCDiG0hxjpr+5noLWMhDQFD4Fj1HPTWsPzPcQEmv2z93ERERPZQp1knPPmvyejmJdeycWxLNH7XthAR3T5sEIyO40zMYVzVwpF4AC0UXcH5mPXQ79hxA+H+8L10BFuK6pIm7YhBnFu3fGN6tNaik/HYotZ1g+GPGNXyNAdxCMBwy+AgA0a+MCYCyJhmOCLWtePWACGFdt0rKGjiAoSYHjMMI2Sgi5yK0LlxyEACYlSd1f1MtmLGqDDEnAQyYueI7VPxFRZjyhoRCMXzlc9lSEgAEPsFZrxb8NxERES21w1vRK/B4o9exdAOctwccGH7XLz8ubGVi4jo9mGTFqOcAx8jYd1xNU1oDlLXzcDZA1e1tWJJTRKx4Ea2YsthICDE2GoUhM7NgbiYxWrdSISJl4118pj8rUnyuOljApCyJm98kB6wNuaNF4qMR0ItVzRSqzeyNTkFcPO+YZAq7n75iIAVkxqAvhMnoZtbHCIYgoiIqKzlZuNCwk4smzkYg99aB8vftEREtwMbjTESPyP3foIjn83Agc/+hTN7/1K1xVTMsLD1/Y1IaOivd18LD0FAqlmYMSNbZozd1cYF5r+3giEwQISgmPzd9qSGIaZj5HgnX3jAu7gzzonwMvtwM4yTxxbV0lTc/Sx8FRMHj8BmOBI5sxgBkoiIyFY24l+hfdCn38MYPOZfWLhRnwWPiOh2ZLNgJFuKrl9KRO6ldLVeTFrrTDN0LlYIWYzVsR7oNnEwJgd7WGkt0kPROPeNpu5qsy3GH2XEyi55IQXG5ejd11RXOm25wYxzFra+P1J/PBl8rM1ipxR3P3OyC13KyRQEhBc/TBERERERUeFsGIxulgw7QMAYi3sCBU/CdCuTCmzdcQQIDEEArI9LauRuQMb5BLUmu9tZ3o07ATNGxSAlcKwpHOnnHFYq9yQqebc6fdIF0wQLlsKnIcQtDqtfFoGukJn5iIiIiIioZEotGP199QpytOWqnIDOiivINe1zRdVZp7WirEkR4cjYlU0sIgCstjaeZvNMbDwp4o34aq1b2VciQMjQo59nGFxTrfV8Xowpc+NEGBL7yVYbeU8iy8c3b83J182u4Cxw5l33ovsAMaPUc9Oea97McYXuZ0Z2m9Oel5yVzjhJhNaFbitmRMbBo48KkBbnJiIiIiKi4qsUGBio5Zj09EtaBRGRrWRlZaoSlSVPT0+cPVvaN7EpWwMHDsSyZcvUWvlzR/17cMedjYHKd6ia29D1a7j213FcO71LVRARVSzlsCsdERHZneE6Xp2Shn1Lz+DkslM4+U0Kdr2TiaF3qu1007RQ5NH89g5Fknj+8nXI10NEVBExGBEROTrDNUR/8idGtk+HS5Vrep3TVXi0PIe3/nMZEy2HZlKJaC1FFUhFez1EREYMRkREDm7kc2no5Jqr1iwYUjFqogpLdHNu95YiSxXt9RARKQxGREQO7Rr6tCp6QpxqzTMxUZWJiIgqKgYjIiKHlguXGqpYmBrXUVcViYiIKioGIyIih+aE9KuqWJirlXFOFYmIiCoqTtdNRHbD6brLB8vpukdO/guvdrB2jzdd1u9eaP5G+R5XYv/pul3w2si+CHQRxexjWPzJDnwDH8x6MRja1AR/7sC4qGM4LYrV24bJmtLhBAxpAgR7ArXNvyXin9bsbcAWtXozhgQAfd3UipnVG4CvVNkoc0+UKhX/fSAiKu/YYkRE5OAWzK6Nn89VU2sW0u7Ee+9zsH1B2cjIVsXMDCSrokl2dumHgUrA5HtFeKlvEYrKVBm8D0RENsJgRERkE0F4ef4SLFlSjGVGuDqmjGTcgWHTXHE0R62buOCHdw1YUHhjkgPLxIUC78tFXEhXRRvwbwS0lePBrgF79gOjNwBPGpdbbC2SvoozO98u8bFQ9UWz//tARGQrDEZERAScqobYJCDrnAhIR8VyTlyBn6qBtw+r7VS4jKs4ropGGRcuqlLpaSu7qwnnTgIzzsn4Uc7Y6X0gIrIV2wUjgw+qNOqCGnU9UbmSqiMichhb8e6oJ/Hkk4Ut72JritwvBwn7N2hHlAeJO1zQc5JYdlQDrot1VU8FpV5SY+ZM3cXMupVpo3dLl6vq7ZhRoGWvbNn7fSAispXSD0aGjnAbOhN3jZmMFo89gSZPvYq7XpyGev6eagdbGozp0VGYXsa9UoiIbsR54KO410MU0uOxKjJJryxr15xQzUkv+jiJVERFupBjvPo3statrKDO9YGPg4AlPdTSVaz7A72qqx0KYVDfmyK5AJ/LcwaI/WsDH6jH+bwN0Fxs7t4YiOwu6sQy3Us/5Fbd7PtARFTelO6sdJX84fbMP+FVR1+9fi0HfztVgVOlHKT+722c2fuXvoGIHBJnpTMKwIQ5L+PeO3OQEPMyXrZzMLKclc6o09B0fPFwGvSGieo4+r0Hei66PZr87T8rXfGZz0pX2MxvmlTgyThVFjqLJDNOhKjiOHEQmHJGFGQwukeEogtAvDPgbzanxp7jQCsRjKqodeQCS38BlqvVfIznEcWiZ6UjIqo4SrXFqHJgX3iqUHQlbiH++PAFHPjgbRz7fqEKRc6o7MKudUTk2JyfeBRt7xSFK4exoby0FgnbFrmg+cAGaKgtdW+bUHTbEL8fu8tQdA34OTZv8oTRW0XwEKHlomXDy61wFaGoqnicbSL4aF02gbaNxP9EYHpLhKET8k+iTkBzNW6JiIhKNRhVgaGJj37CnMM4+5P+Z68qPZ5DnRrxWhnoAs/Rz8H1hrdQ17vERWvLNAwJn4bodwfrm4InYeH8SQjS14QgTJ6/AJODZVkeZyxbkvsZzxmFhRPlGdT+4eKcxsczP7d8LOPjG7cbnwcR0U0JwnP3N9P+ap+05b9Yp1eSI6iht8DgiggsF/MmT7iYBaxOEAHpD1WhbDlsNkucWPaoBlfZOmReLxettcicyLQZInPPE8ckifMb6/aIc8bnAmnGOiIiMinFYNQIVVxV8epF5PwtQlHnV9G4jQtce8xEvS5PofFLfeEGF3gNnQ2vNmrfAmSACQHWhCE0VC7x8O/jq7bdLHnOsWh2eI46ZwyOqC3y11SACFIRWn0YYlIDMC5f+PFFiH+8Om4O4txCVKgiIio57/B+8Jd/pb8Sj//9t2xai5ydnVWJ7EokoXOypUZ8/ye3BR4RKUkLSjbym8UUcTkpIihx7A8RUaFKMRhdxXWLv0DlbHkbx/emI23DJCRvXo6T89YjDelI/n4Gzh5QO1kKD0EA4rA6Uq1jMaasSVDlmxQchGbinBHvb1UVizHDVM5AXORMGNe+iolDRkN/DFHrQAJiXl6sylsxY3MCDM2D8lqViIiKLQjhwb5sLXJUIpTM/kN8EeHIUAcY1AH4vCvwgR/QV96fqJRlXFMFJVv8jmYuIiIqXCkGo0Rc/fOKXnRpgdpe+vDOnK0fI/mwKP+djtz0XfhrvQhHiYm4XtR0o6lJpqBSKnxdYSjuOTcnQXXHti4hjb9YiOimeD89EAFl3FpEZetwMvDMJmD1aeCc/GOik/hceAFDOgLzRECSM8cREVHZKMVgBGTt3IVL2hx3LvAMewP1H3kOXv3+iabj3oCbFpREeNq9Hjk3mpjKzTtfi0xQPTmn7S2yOGehgr3hcSkNJ9RqASUJWUREJr3wdGdvrcTWIgeXC3x1GHhO/CLRQtIZeTcroLYMSO76LkREZH+lGoyQuhxnfj2r/YBHJRe4Nm0ON987UUWUPe7vmzdFaFEi45FQKwB9TfciGoy+gWa9sGWLTq1m6KwmWAiaOAwBtfRyfvpkC9o9jdQ5h5vGBg3GZFPZgIAQ45gicUx4AHB4q1nw8UU3s+Om9/FFQryxax0RUfE0G9UX/nJoD1uLyIzs7vbVQeDnC/p6vdr6VyIisr/SDUYiEslxRYe+/BpJew8jLfUKrp5LRPL6j3Fo0XI9MN3QYkyZGwePPmoWuGh/xOcbY7QYq2OBgDH69uHYiLgb3oJJnDM0BimBY9U5Q+CabIw+GYg776/qxyIgNQYjTOOPpAQcwTDTcR6xczDFNP6JiKgYnEPw5H36dJxsLXJcnRvrN3J9RISfRmY3a20k1v3VH/iSS+GWgkREdHNK9wavNhI0cYEIQF9YBJbSIKfr7oa0uSMxY7OqMien6x7jio2hUwvc3I6ISs5Rb/DabNTHeKuHCEZX4hE57i3EqOGYZaVx48Y4ftxiyrLb3O1wg9cb3bA1JxV4Kw44rNYtTe4EtK1udjNXa6zcmNX4uBmngWfUyY3n2rMLmJGu103vIeeXLZrxHLzBKxFVRKXcYmQDIpwMDwSO7CjtUEREZAfOAzE0WG8tOvfrkjIPRVR2thwzm3RB+5Ok/jUnQwSUAyK8FBGKiIjI9sphi5FsxQmB+Z2LEtaE2aj7GluMiOzJUVuMyhu2GNmXscWoImGLERFVRLdFVzoiqhgYjMoHBiP7YjAiIro9lP+udERERERERDbGYERERERERA6PwYiIiIiIiBwegxEREZEtXb+mChVERXs9REQKgxEREZENXfurYk10UdFeDxGREYMRERGRDV07vQvXUg7f/i0t4vnL1yFfDxFRRcTpuonIbjhdd/lQEafrJiIiulW2azEy+KBKoy6oUdcTlSupOiIiIiIionKo9FuMDB3h9ugj8KznnJe6/k5HytqPkRx/VlXYQfAkLBzTDEfmjsSMzaqOiMoUW4zKB7YYERERFVS6LUaV/OEWOhheKhRdv5aDXBm7KtWAk1OOtovdbJ6JEaEMRUREREREdGOlGowqB/aFZx29fCVuIf748AUc+OBtHPt+Ic7s/UvUisDkwq51RERERERUvpRiV7oqqDXoQzRsIIo5h3H8o49xRZy5Ss9p8EiZKoKR3OcheL3UBZmLpiI1Wa5bMxjTo7shLTYFAYG+Wk3CmjBMwTRE9zFbj9SKqstcAAxq1bRNq3fFxtCp+Mp4zjVH0KyP2vdkDEJfXixLBQRNXIBxgeqMl+Iwe9RMNHo3Ct3Ox+BI8xAE1JIbMhBn7KZnfKw1QIh6jkWdn8hRsStd+cCudERERAWVYotRI1RxVcWrF5EjQ1HnV9G4jQtce8xEvS5PofFLfeEGF3gNnQ2vNmpfqwwIcI9HaGgYQtckwLdPFKL9zdenYYjaM6iDK47MFfVWtuUnzhkMRMj9QmOQ0DAE08PVJjNaKGp+BLO1/cIQc1htEAyB3YBI42OJ4DbG/LF8EWJ8jqFzEOcWgoUTg9Q2IiIiIiIqz0oxGF3F9SxVVHK2vI3je9ORtmESkjcvx8l565GGdCR/PwNnD6idrMpAXIxqbYmMR0KBdQ94i5AjbX1/at44Im1bYcQ5Imdiq1ZejPiTgEc9y+AShM7NYbYf8NX7eeWM2C/MHisGcZd84W8KVwmIMbUQbRX7JcDQPEickYiI7Kc7pj3wA34aaLnMwbNqDyIiImtKMRgl4uqfV/SiSwvU9qqiFXO2fozkw6L8dzpy03fhr/UiHCUm4nqpzcUgu8lFIVpbQqA6st3QifMZqmTOF661UpBkDD9F2oqkVFW0JiFNRDEiIiIiIrodlOrkC1k7d+GSNmLJBZ5hb6D+I8/Bq98/0XTcG3DTgpIIT7vXI6fUhhmosUPGrnSyi5zacvPyWqOKFgRvtwykFfaAvq4wpCaZWpuIyFE5wd2vM/oNGo4RI0dj9Gh9GTH4UfRs64VapfpTmICfMfXHh3D/MuPyHY6qLUREREUp3V/Jqctx5tez0BqDKrnAtWlzuPneiSqi7HF/X+htSKUo2FvEGLMWnnD/YrcY5QnC5PlRaryR7GJnQED4JFMXuCET88qGwJC8sU0ThyEAR7DF1Lrki26mMUUisPXxRUI8J18gcmzO8AsZike7+sPLtSqczH7iOtV0R9N7++Gxfm1gHJ5JREREZaeU/1aZo40rOvTl10jaexhpqVdw9Vwiktd/jEOLluuBqTRtnomIWA+EGLvS+cuRPrfmq5fDEJMagHHqnCHuea0+GbFp8Ff14wJTEDMqb/yRfOQjGKY/j+gQeMTOyZs5j4gcU+PO6Fy/KnD9Eg7+uBQRC+Zh3jyx/DcS3289A9n5uKpnIO6ur+9OREREZacUp+uu2IZo03XPwYj3rXSOyzc1OBEVxtGm63YPCsOjrWoh++haRKw/pWqNqqLNI8PRsS5wZtM8rCpyQprS5VjTdY/EZwMfRVMcw7fLxuIzVUtERGSJvduJiGzkfKr+B6eq9RpBzUeTx7kZGmo3xE7D2dNaDREREZUhBiMiIls5sB17L4qvtfzQb1gYerdtgFpVq6KeX1c8+nhnLSxd2r8RO9lgT0REVObYlY6I7MbRutJpKrvCv1cfdG5YS1UomWk4uH0Nfjls/5+97EpHRERUEFuMiIhs6folJJ++gEvX1bpRVWe4e9SBs1olIiKissVgRERkM87we2goHg1qgFq4glNbv0NE1DrEp2SLn75V4d6qNwaF+DEcERERlQMMRkRENlK1TS90bahP1x2/IhJr959H9qUT2LIsAkt/TYaIR6havyt6tRH7EBERUZliMCIisomq8GtSTyvlJmzHlnNa0STt93X4PUUv1/NqoBeIiIiozDAYERHZhDMM1fRS1lV5K1dLV3AlSxWJiIiozDEYERHZRBpOntEDkXPLbujpVw/OxnsZVXFGvVa90d5LX00+Y3nzVyIiIrI3BiMiIhs5s2snTskZyiu7omnXhxH+9GiMHi2Wp8PxcFADOIufwNknf8G6vXK0EREREZUl2wUjgw+qNOqCGnU9UbmSqiMiciRXDmJt1Hf4Zf8ZpGXmqkrhei6u/HUK8b98h0U/HIS1jnZERERkX6V/g1dDR7g9+gg86znnpa6/05Gy9mMkx59VFeXBYEyPDoGvKCWsCcOUSL2WiGzHIW/wWg7xBq9EREQFlW6LUSV/uIUOhpcKRdev5SBXxq5KNeDklKPtUl4ETewG35MxCA29iVAUPg3R8ychSK0SEREREdHtrVSDUeXAvvCso5evxC3EHx++gAMfvI1j3y/Emb1/iVoRmFzKT9e6jPMJqkRERERERI6sFLvSVUGtQR+iobwdR85hHP/oY1wRZ67Scxo8UqaKYCT3eQheL3VB5qKpSE2W69bILm7+iA+diq9UzZB3o+Afr1p2gidh4ZgAGLQtCYgx7ldYvRXyfCEN1YraF6Ku2/k4pAQGaN3rIFuTXoapu52+vhhBExdgXKD+KJLVbniyRamPdpSgn/+EPM59I2IQYnps82Plc+p2PgZHmocgoJasyUDc3JGYsVnbTFQhsCtd+VCxu9J1x7QHJuNe7eeoOXalIyKiopVii1EjVHFVxasXkSNDUedX0biNC1x7zES9Lk+h8Ut94QYXeA2dDa82at8SEaFpTDMcmRumdYELNYUfi/o1QEgRXd2+ejkMs2MzkBE7x+wcgCHQVQQyeY4YJDQMQbQW0PLWp4cDW98fKc6fAFyKw2xr3fC0UAQRhvTnMjs2TW0QxDlkwNOe49w4ePRZgMnBaptgCOwGRKrta1IQMGYahqhtRERERERkO6UYjK7iusXNCnO2vI3je9ORtmESkjcvx8l565GGdCR/PwNnD6idSiQBaZcMcDU2xij6eKGNea0rkfFIqOUqolrJZMTGqJC0GPEnC6571LvxqKIh/r5IWJMXtra+P9NUlq1OpiC1eSY2njSgWYe8c2bEfmH2GmIQd8kX/iKMERFRcf2MqT8+hPuXWS5sLSIioqKVYjBKxNU/1aSzLi1Q20u/k2HO1o+RfFiU/05Hbvou/LVehKPERFy/qbkYtmLGqBigTxSio6O0FhwTrYVHr4/Wur95wNusNcY+guDtloG0Yg5dOnE+Q5Ws2YqkVFUkIiIiIiKbKtXJF7J27sIlbcSSCzzD3kD9R56DV79/oum4N+CmBSURnnavR84tDTNYjClaNzUZkPK6ound4lQ3NG0pq/E5BVu0CtPI3YCU5K1qzVLJQhYREREREd28Ug1GSF2OM7+ehdYYVMkFrk2bw833TlQRZY/7+0JvQ7oR2V3OrAtZ+DSziRLM5XWr27rjCBA4LN94HbsyTd+9FVsOZ8C3T97YoKCJk/LGCTXslvcctdeVgHizMUqGwBCz44YhAEewhZMvEBERERHZXOkGIxGJ5LiiQ19+jaS9h5GWegVXzyUief3HOLRouR6YbmgrZmxOEOFCdYvzj0fMSbVJm7HO2F1uLJodnqOP2dk8EyO0yQqM28Ty7mD9EFuQ439EbBknHidfdz5BTs4wO9YDIep5jGsOnFDbcFIEuHD1/Pp4IG5u/pnzMmLT4G88LjAFMaNmineDiIiIiIhsrRSn66aiaNN8u2/Upvy2Rp+uew5GvM8oRBUXp+suHyr2dN1EREQ3p5RbjMoZeW8j1QKTt+SfIpuIiIiIiKhiByPZxS7fhAxlOSkDERERERGVV+xKR0R2w6505QO70hERERVUsVuMiIiIiIiIioHBiIiIbCwX0V+fwsn/iWXVeez6IBNDPdQmIiKicsLUle6OO5y1CiIiW/nzT9Pc+1SG7N+VTgajJHSqrValC+54+0lnLFCrREREZY3BiIjsxlGDUS3f9ujWoRXquVSFk2ynz7mC8yd345dN8ThfvBu8laoyG2Nk+BuDBmTg1adS4YKqiP/SE32i1DYiIqIyxq50REQ24wy/h4Yj7MF28HJVoUiq4gz3pp3x6JB+8HOkv0llVMLSqJr48vfqYiUbPi1y9XoiIqJygMGIiMhGnO/uha4Nq4oMcB7xPy5FxIJ5mDdvHiKWrsPBNLFDVS907u4HsYdDef+YDEZERETlC4MREZFNuOLulvXE11yc2PwdthxPQ/Z1fUt22gn8svwXnMkBnOr7wc/RkhEREVE5VOrByOWeSnhiiFiCVYXkVwlPDauEB+9R60REFZ4n3LXJBpKRZG04T/ZBHE+RhXrw9tVqiIiIqAyVbjAKroRXhzmhS5vKMJ98SPJp7YR+w+7AePPAZA/3jsJ7cyZioFq9Kdo5pmHMvWqdiOiGspClTazgDncvraKA5FT9xtp13Fy1r47GxZVjjIiIqPwo3WDkURlyHHH8slws2KxXaQ7+jbe/ycUVUTTcjveu+G0+Xho7FXN/U+tERDd0AqeS5deq8OvaG/6eznDS6kWNawP4d3kYve+qpVc43aF/dRQ7q0BrLPO7hOVh19HJoNUSERGVKZuMMartqQrmnCs53ABjInJsB7duR3K2KNRsgM4DwjFi9GiMFsvwQb3RuWU9ODvqKM/dNfDWkjpIz81Eu6dOI3rZKZz8OgMj1WYiIqKy4OTl5fVvWahcuYpWcUvcgW6tKuNqwnVsOaDqjNpWRt9GlfDn79fxWxG3zxg45UM83SoFP+76U9UMwJQ5/VB3zTbIU7Z/dhpeGd4XISEPIaRrQ6T8FIv7tGOqo9njz2LYI6I+pCt8z6/HziRxgHcgegVUw2nt+HYYM2MShj2gH3dGbJaPNy5UHvMQ7q5RHcHj8h7LRHalm9odtaw9h7urY82WQ9pu+erNn4P2Gp5CmxpN8MS4IXjY4jgiR3H58kVVchCZyTh4LBWV69yJOw3VTdN1514+j9PxW/BHti98XCsj7fgOHEy2X7eyOnXq4MKFC2qtbHg1u4ZOLbNQu6qakSLLGZu+qYrd+hoREZHdld7fK+X4ohAnOF/7G4d+VXXmfr2O09eAFvc74akixhktO5wE50b3oL1ax6PNUP/0ESwTRRk8hjVKwBdjX8BYsaw/oe8iObfuAHyn14/dkAr/pwqOKxo4JRz+aRsxdvJ87BTr8nw9IdbV+Q4174b6+q6Fe3RivucwdvqKvPrWqVhvrP8yAY3yPYca8L8X+FrbvhGn63fDlEfVJiKquC6dwM6YpYhYqE/VLZeFi7/D2t+SxI8F2bkuGxf+ks1KDsSQjZeG/gUfQzXs/rI++jzYAA2fMGCB2kxERFQWSi8YZamvmX9rY4msycgErolwVKTvjuB0TRf4qNWBzb1x+rAMH+3QvhEQ/50eaqRln+WVr+z7Nm8M0HcbEH/ZGy3MgoenDEGuB/CFMchgAO5vLc633rguzjddBBZVLlRiOq6YPT9dO4y5VzzPDe9rAU7z23xsP23+HK6aPfcVOCQeyM2jnbZGRA7I9W60rCu+5iQhSTZfO5IBmfCvKn5t/F4bj0RVRryqJiIiKkulF4x++xtvf58rQkNltL1P1Zm7rzJa1ATO7s7Fl+YTMxQgQ4MKFPeOQkcRZn76Ttb7oHbNVJwt1gQIu3FW3jzRxBv+MgSZhSpdcc9nRk7EsAHoOedDzMk3291VXExURSXxwtVCw4/cRkQOqooXOj/UDnIuuitH9+Oo6k3mMNScE1lXK+kFIiKicqB0h/6qCRZyLuur+aT9jRs1FhnJ7nT1mw9A+3a+wIldZmHGDZ7FmjK7HTxdzYNKEtZb7V5ncb5764maYvjufb27nAxIM0apbn81UDt/MxJ86tRAagp7zBOR5ATnWvXQ6N7eCHuqH/zlPQ0uxmPdFkdrLiIiIiqfSjcYuVaCnHT2Srq+ms+Vv1HsXvSyO139Zri/jshFu43BQrYk1YD/o8YgAgx8Nq/s3LqHKfS0f/Yx+CMBO81bg0SY+WKfG3qaWnnU+XoO0NakgT1batONa4pz/yNTt7rd2HniKur3MNtftnbVT8IhrbWLiByTH/qpmehGjx6B8LCH0attA9RyArJT4rF25RYkO1prERERUTlVusHo9HVtfJH/wxYTLPhVwouizhl/4+INB/FIene6+q75w82y6S9gfVpLDNO6sX2InnWSzcYYpaOFqtcmQVATLJjb+dlUrBfn7alu1rpseiTiXbtpx8ilxeFijDF6dKJp/zlP+eLEl/q4InluPXgZt7lg+1izMUdE5PByM6/g/Ml4bFkVhYhlW3CqsAGZREREZHeVAgMD/5aFO+4wtZXckhZdK6FXh8pI3242lsgL6BdUCdkn/sb/dqm6UiSn3O54IRIvfXaL3dZkK9GjwNeWoaqweiIqkT//PKlKVJYaN26M48eLuG+CrY1Ox8mBaUj/1Rut/2W87S0REVHZKt0WI+HQL3/jk5kWEyycAVZ9Y5tQVHraYcyjLS3GNOnkWCfntLzWKSIiunkjvVTHanYjJCKicqTUg9HtRLY0mbrFzdHvcWTe6iTvcyS3aV3zTNN8ExHRTTH8jUFhl/HcfbIPYXUc3cfWIiIiKj9KvSsdEVFh2JWufLB/V7pcRH+dhE5yJj6jZA9MGloDS9UqERFRWXPoFiMiIrKzbGek7K+H1/7JUEREROULW4yIyG7YYlQ+lPnkC0REROWQKRilp1/SKoiIbCUrK1OVqCwxGBERERXErnREREREROTwGIyIiBwMW4uIiIgKYjAiIiIiIiKHx2BEREREREQOj8GIiIiIiIgcHoMRERERERE5PAYjIiIiIiJyeAxGRERERETk8BiMiIiIiIjI4TEYERERERGRw2MwIiIiIiIih8dgREREREREDo/BiIiIiIiIHB6DEREREREROTwGIyIiIiIicngMRkRERERE5PAYjIiIiIiIyOExGBERERERkcNjMCIiIiIiIofHYERERERE/99+HQgAAAAwDLo/9UFWFkGeGAEAAHliBAAA5IkRAACQJ0YAAECeGAEAAHliBAAA5IkRAACQJ0YAAECeGAEAAHliBAAA5IkRAACQJ0YAAECeGAEAAHliBAAA5IkRAACQJ0YAAECeGAEAAHliBAAA5IkRAACQJ0YAAEDcdvx0d8NXfLwWAAAAAElFTkSuQmCC;" vertex="1" parent="1">
          <mxGeometry x="110" y="440" width="838" height="385" as="geometry" />
        </mxCell>
        <mxCell id="iOABAnh25_ZmhCILAKLg-2" value="&lt;font style=&quot;font-size: 30px;&quot;&gt;Tell vcpkg about your dependencies throug a vcpkg.json file&lt;/font&gt;" style="rounded=0;whiteSpace=wrap;html=1;fillColor=#dae8fc;strokeColor=#6c8ebf;" vertex="1" parent="1">
          <mxGeometry x="190" y="310" width="539" height="80" as="geometry" />
        </mxCell>
        <mxCell id="iOABAnh25_ZmhCILAKLg-3" value="&lt;span style=&quot;font-size: 33px;&quot;&gt;Link against the packages&lt;/span&gt;" style="rounded=0;whiteSpace=wrap;html=1;fillColor=#dae8fc;strokeColor=#6c8ebf;" vertex="1" parent="1">
          <mxGeometry x="1655" y="1010" width="510" height="60" as="geometry" />
        </mxCell>
      </root>
    </mxGraphModel>
  </diagram>
</mxfile>
